<?xml version="1.0" encoding="UTF-8" standalone="no"?>
<svg
   xmlns:dc="http://purl.org/dc/elements/1.1/"
   xmlns:cc="http://creativecommons.org/ns#"
   xmlns:rdf="http://www.w3.org/1999/02/22-rdf-syntax-ns#"
   xmlns:svg="http://www.w3.org/2000/svg"
   xmlns="http://www.w3.org/2000/svg"
   id="svg"
   version="1.1"
   style="display:block"
   viewBox="0 0 32 13"
   width="32"
   height="13">
  <metadata
     id="metadata175">
    <rdf:RDF>
      <cc:Work
         rdf:about="">
        <dc:format>image/svg+xml</dc:format>
        <dc:type
           rdf:resource="http://purl.org/dc/dcmitype/StillImage" />
        <dc:title></dc:title>
      </cc:Work>
    </rdf:RDF>
  </metadata>
  <defs
     id="defs173" />
  <path
     d="m 2.80798,1.055 h 26.38404 l 0.95364,1.1377612 0.47682,0.9752239 1.11258,1.6253731 0.15894,0.3250746 v 3.088209 L 30.3046,10.319627 29.35096,11.782463 29.19202,11.945 H 2.80798 L 1.85434,10.644701 0.74176,8.856791 0.106,7.8815672 V 4.7933582 L 1.6954,2.6803731 2.64904,1.2175373 Z"
     style="fill:#26333b;stroke-width:0.160729"
     id="path4" />
  <path
     d="m 2.80798,1.055 h 26.38404 l 0.95364,1.1377612 0.47682,0.9752239 1.11258,1.6253731 0.15894,0.3250746 v 3.088209 L 30.3046,10.319627 29.35096,11.782463 29.19202,11.945 H 2.80798 L 1.85434,10.644701 0.74176,8.856791 0.106,7.8815672 V 4.7933582 L 1.6954,2.6803731 2.64904,1.2175373 Z M 3.2848,1.5426119 2.17222,2.6803731 0.58282,4.9558955 v 2.9256717 l 1.27152,1.9504477 1.27152,1.6253731 h 25.74828 l 1.74834,-2.112985 0.7947,-0.9752239 V 5.2809701 L 30.14566,3.4930597 29.19202,1.8676866 28.87414,1.5426119 Z"
     style="fill:#1d272e;stroke-width:0.160729"
     id="path6" />
  <path
     d="m 14.25166,2.1927612 h 3.01986 l 0.7947,0.6501492 V 6.0936567 L 16.63576,7.0688806 16.31788,7.2314179 16.15894,7.8815672 H 14.72848 V 6.5812687 l 0.95364,-0.8126866 0.95364,-0.487612 V 3.655597 h -1.5894 L 14.88742,4.6308209 H 13.45696 V 3.0054478 Z"
     style="fill:#1c262b;stroke-width:0.160729"
     id="path8" />
  <path
     d="m 14.72848,8.856791 h 1.5894 v 1.78791 h -1.5894 z"
     style="fill:#1c262b;stroke-width:0.160729"
     id="path10" />
  <path
     d="m 14.25166,2.1927612 h 3.01986 v 0.1625373 h -3.01986 z"
     style="fill:#1e282e;stroke-width:0.160729"
     id="path12" />
  <path
     d="m 18.06622,3.1679851 h 0.15894 v 2.600597 h -0.15894 z"
     style="fill:#222e35;stroke-width:0.160729"
     id="path14" />
  <path
     d="m 14.72848,3.8181343 h 0.15894 V 4.6308209 H 13.45696 V 4.4682836 h 1.27152 z"
     style="fill:#1f2a30;stroke-width:0.160729"
     id="path16" />
  <path
     d="m 14.72848,8.856791 h 1.5894 V 9.0193284 H 14.88742 L 14.72848,9.344403 Z"
     style="fill:#1e292e;stroke-width:0.160729"
     id="path18" />
  <path
     d="M 16.47682,3.4930597 Z M 16.63576,3.655597 H 16.7947 V 5.2809701 H 16.63576 Z"
     style="fill:#222e35;stroke-width:0.160729"
     id="path20" />
  <path
     d="m 14.72848,10.482164 h 1.5894 v 0.162537 h -1.5894 z"
     style="fill:#202a30;stroke-width:0.160729"
     id="path22" />
  <path
     d="m 15.04636,3.4930597 h 1.43046 V 3.655597 h -1.43046 z"
     style="fill:#243138;stroke-width:0.160729"
     id="path24" />
  <path
     d="m 14.88742,7.8815672 h 1.27152 v 0.1625373 h -1.27152 z"
     style="fill:#222e34;stroke-width:0.160729"
     id="path26" />
  <path
     d="m 14.72848,6.5812687 h 0.15894 v 1.3002985 h -0.15894 z"
     style="fill:#212c32;stroke-width:0.160729"
     id="path28" />
  <path
     d="M 3.2848,1.5426119 Z M 3.12586,1.7051493 Z M 2.96692,1.8676866 Z M 2.80798,2.0302239 Z M 2.64904,2.1927612 Z M 2.4901,2.3552985 Z M 2.33116,2.5178358 Z M 2.17222,2.6803731 Z"
     style="fill:#27343c;stroke-width:0.160729"
     id="path30" />
  <path
     d="m 13.93378,2.3552985 0.31788,0.1625373 -0.63576,0.487612 z"
     style="fill:#1c262b;stroke-width:0.160729"
     id="path32" />
  <path
     d="m 16.31788,7.0688806 z m -0.15894,0.1625373 0.15894,0.6501493 z"
     style="fill:#253138;stroke-width:0.160729"
     id="path34" />
  <path
     d="m 14.72848,3.8181343 0.15894,0.6501493 z"
     style="fill:#1f2a2f;stroke-width:0.160729"
     id="path36" />
  <path
     d="M 14.72848,9.0193284 Z"
     style="fill:#1e282d;stroke-width:0.160729"
     id="path38" />
  <path
     d="M 16.47682,7.0688806 Z M 16.31788,7.2314179 Z"
     style="fill:#27343c;stroke-width:0.160729"
     id="path40" />
  <path
     d="M 16.31788,7.0688806 Z M 16.15894,7.2314179 Z"
     style="fill:#222d34;stroke-width:0.160729"
     id="path42" />
  <path
     d="M 14.72848,6.5812687 Z"
     style="fill:#212d33;stroke-width:0.160729"
     id="path44" />
  <path
     d="M 17.90728,6.0936567 Z M 17.74834,6.256194 Z"
     style="fill:#25323a;stroke-width:0.160729"
     id="path46" />
  <path
     d="M 15.04636,6.0936567 Z M 14.88742,6.256194 Z"
     style="fill:#243037;stroke-width:0.160729"
     id="path48" />
  <path
     d="M 16.47682,3.4930597 Z M 16.63576,3.655597 Z"
     style="fill:#212c32;stroke-width:0.160729"
     id="path50" />
  <path
     d="M 15.04636,3.4930597 15.36424,3.655597 Z"
     style="fill:#243138;stroke-width:0.160729"
     id="path52" />
  <path
     d="M 18.06622,3.1679851 Z"
     style="fill:#222e35;stroke-width:0.160729"
     id="path54" />
  <path
     d="M 13.45696,3.0054478 Z"
     style="fill:#1e282e;stroke-width:0.160729"
     id="path56" />
  <path
     d="m 17.5894,2.3552985 z m 0.15894,0.1625373 z"
     style="fill:#253138;stroke-width:0.160729"
     id="path58" />
  <path
     d="m 14.25166,2.1927612 0.31788,0.1625373 z"
     style="fill:#1f292f;stroke-width:0.160729"
     id="path60" />
  <path
     d="M 16.15894,10.482164 Z"
     style="fill:#202b30;stroke-width:0.160729"
     id="path62" />
  <path
     d="M 14.72848,10.482164 Z"
     style="fill:#202b31;stroke-width:0.160729"
     id="path64" />
  <path
     d="M 14.72848,9.0193284 Z"
     style="fill:#1e272c;stroke-width:0.160729"
     id="path66" />
  <path
     d="M 16.15894,8.856791 Z"
     style="fill:#1e292f;stroke-width:0.160729"
     id="path68" />
  <path
     d="M 14.72848,8.856791 Z"
     style="fill:#1f292f;stroke-width:0.160729"
     id="path70" />
  <path
     d="M 16.15894,7.8815672 Z"
     style="fill:#26333a;stroke-width:0.160729"
     id="path72" />
  <path
     d="M 16,7.8815672 Z"
     style="fill:#222d34;stroke-width:0.160729"
     id="path74" />
  <path
     d="M 14.88742,7.8815672 Z"
     style="fill:#222d34;stroke-width:0.160729"
     id="path76" />
  <path
     d="M 14.72848,7.8815672 Z"
     style="fill:#243038;stroke-width:0.160729"
     id="path78" />
  <path
     d="M 14.88742,7.7190299 Z"
     style="fill:#1b252a;stroke-width:0.160729"
     id="path80" />
  <path
     d="M 14.72848,7.7190299 Z"
     style="fill:#212c31;stroke-width:0.160729"
     id="path82" />
  <path
     d="M 16.63576,6.9063433 Z"
     style="fill:#243138;stroke-width:0.160729"
     id="path84" />
  <path
     d="M 16.47682,6.9063433 Z"
     style="fill:#1e292f;stroke-width:0.160729"
     id="path86" />
  <path
     d="M 16.95364,6.743806 Z"
     style="fill:#253239;stroke-width:0.160729"
     id="path88" />
  <path
     d="M 16.7947,6.743806 Z"
     style="fill:#202b32;stroke-width:0.160729"
     id="path90" />
  <path
     d="M 17.11258,6.5812687 Z"
     style="fill:#212c32;stroke-width:0.160729"
     id="path92" />
  <path
     d="M 14.72848,6.5812687 Z"
     style="fill:#242f36;stroke-width:0.160729"
     id="path94" />
  <path
     d="M 17.43046,6.4187313 Z"
     style="fill:#232e35;stroke-width:0.160729"
     id="path96" />
  <path
     d="M 14.88742,6.4187313 Z"
     style="fill:#1e282e;stroke-width:0.160729"
     id="path98" />
  <path
     d="M 17.5894,6.256194 Z"
     style="fill:#1f292f;stroke-width:0.160729"
     id="path100" />
  <path
     d="M 15.04636,6.256194 Z"
     style="fill:#1d262b;stroke-width:0.160729"
     id="path102" />
  <path
     d="M 15.2053,6.0936567 Z"
     style="fill:#1e282e;stroke-width:0.160729"
     id="path104" />
  <path
     d="M 17.90728,5.9311194 Z"
     style="fill:#202b31;stroke-width:0.160729"
     id="path106" />
  <path
     d="M 15.36424,5.9311194 Z"
     style="fill:#212c33;stroke-width:0.160729"
     id="path108" />
  <path
     d="M 18.06622,5.7685821 Z"
     style="fill:#253239;stroke-width:0.160729"
     id="path110" />
  <path
     d="M 15.68212,5.7685821 Z"
     style="fill:#212c32;stroke-width:0.160729"
     id="path112" />
  <path
     d="M 15.52318,5.7685821 Z"
     style="fill:#26323a;stroke-width:0.160729"
     id="path114" />
  <path
     d="M 18.06622,5.6060448 Z"
     style="fill:#222f36;stroke-width:0.160729"
     id="path116" />
  <path
     d="M 16,5.6060448 Z"
     style="fill:#202c32;stroke-width:0.160729"
     id="path118" />
  <path
     d="M 15.84106,5.6060448 Z"
     style="fill:#25323a;stroke-width:0.160729"
     id="path120" />
  <path
     d="M 16.31788,5.4435075 Z"
     style="fill:#202b32;stroke-width:0.160729"
     id="path122" />
  <path
     d="M 16.15894,5.4435075 Z"
     style="fill:#253139;stroke-width:0.160729"
     id="path124" />
  <path
     d="M 16.47682,5.2809701 Z"
     style="fill:#242f37;stroke-width:0.160729"
     id="path126" />
  <path
     d="M 16.63576,5.1184328 Z"
     style="fill:#212c32;stroke-width:0.160729"
     id="path128" />
  <path
     d="M 14.72848,4.4682836 Z"
     style="fill:#212c32;stroke-width:0.160729"
     id="path130" />
  <path
     d="M 14.72848,4.3057463 Z"
     style="fill:#1e292e;stroke-width:0.160729"
     id="path132" />
  <path
     d="M 14.56954,4.3057463 Z"
     style="fill:#1c252a;stroke-width:0.160729"
     id="path134" />
  <path
     d="M 14.88742,3.655597 Z"
     style="fill:#27343c;stroke-width:0.160729"
     id="path136" />
  <path
     d="M 15.04636,3.4930597 Z"
     style="fill:#243038;stroke-width:0.160729"
     id="path138" />
  <path
     d="M 14.88742,3.4930597 Z"
     style="fill:#202a30;stroke-width:0.160729"
     id="path140" />
  <path
     d="M 18.06622,3.1679851 Z"
     style="fill:#233036;stroke-width:0.160729"
     id="path142" />
  <path
     d="M 18.06622,3.0054478 Z"
     style="fill:#26333a;stroke-width:0.160729"
     id="path144" />
  <path
     d="M 13.45696,3.0054478 Z"
     style="fill:#202b31;stroke-width:0.160729"
     id="path146" />
  <path
     d="M 17.90728,2.8429104 Z"
     style="fill:#202b31;stroke-width:0.160729"
     id="path148" />
  <path
     d="M 13.45696,2.8429104 Z"
     style="fill:#253038;stroke-width:0.160729"
     id="path150" />
  <path
     d="M 17.90728,2.6803731 Z"
     style="fill:#26323a;stroke-width:0.160729"
     id="path152" />
  <path
     d="M 13.6159,2.6803731 Z"
     style="fill:#212b32;stroke-width:0.160729"
     id="path154" />
  <path
     d="M 13.77484,2.5178358 Z"
     style="fill:#1f2a30;stroke-width:0.160729"
     id="path156" />
  <path
     d="M 17.43046,2.3552985 Z"
     style="fill:#1f292f;stroke-width:0.160729"
     id="path158" />
  <path
     d="M 13.93378,2.3552985 Z"
     style="fill:#202b32;stroke-width:0.160729"
     id="path160" />
  <path
     d="M 17.27152,2.1927612 Z"
     style="fill:#233036;stroke-width:0.160729"
     id="path162" />
  <path
     d="M 17.11258,2.1927612 Z"
     style="fill:#202b31;stroke-width:0.160729"
     id="path164" />
  <path
     d="M 14.25166,2.1927612 Z"
     style="fill:#212c32;stroke-width:0.160729"
     id="path166" />
  <path
     d="M 14.09272,2.1927612 Z"
     style="fill:#243138;stroke-width:0.160729"
     id="path168" />
</svg>
