<?xml version="1.0" encoding="UTF-8" standalone="no"?>
<svg
   xmlns:dc="http://purl.org/dc/elements/1.1/"
   xmlns:cc="http://creativecommons.org/ns#"
   xmlns:rdf="http://www.w3.org/1999/02/22-rdf-syntax-ns#"
   xmlns:svg="http://www.w3.org/2000/svg"
   xmlns="http://www.w3.org/2000/svg"
   id="svg"
   version="1.1"
   style="display:block"
   viewBox="0 0 32 13"
   width="32"
   height="13">
  <metadata
     id="metadata155">
    <rdf:RDF>
      <cc:Work
         rdf:about="">
        <dc:format>image/svg+xml</dc:format>
        <dc:type
           rdf:resource="http://purl.org/dc/dcmitype/StillImage" />
        <dc:title></dc:title>
      </cc:Work>
    </rdf:RDF>
  </metadata>
  <defs
     id="defs153" />
  <path
     d="m 2.80798,1.055 h 26.38404 l 0.95364,1.1377612 0.47682,0.9752239 1.11258,1.6253731 0.15894,0.3250746 v 3.088209 L 30.3046,10.319627 29.35096,11.782463 29.19202,11.945 H 2.80798 L 1.85434,10.644701 0.74176,8.856791 0.106,7.8815672 V 4.7933582 L 1.6954,2.6803731 2.64904,1.2175373 Z"
     style="fill:#26333b;stroke-width:0.160729"
     id="path4" />
  <path
     d="m 14.72848,1.8676866 h 2.22516 l 1.43046,0.6501492 0.95364,0.6501493 0.95364,1.3002985 0.47682,1.1377612 V 7.3939552 L 19.9735,9.0193284 18.86092,10.15709 17.74834,10.807239 16.7947,11.132313 H 14.72848 L 13.29802,10.644701 11.86756,9.344403 11.2318,8.5317164 10.91392,7.5564925 V 5.2809701 l 0.63576,-1.3002985 1.43046,-1.3002985 z"
     style="fill:#27343c;stroke-width:0.160729"
     id="path6" />
  <path
     d="m 2.80798,1.055 h 26.38404 l 0.95364,1.1377612 0.47682,0.9752239 1.11258,1.6253731 0.15894,0.3250746 v 3.088209 L 30.3046,10.319627 29.35096,11.782463 29.19202,11.945 H 2.80798 L 1.85434,10.644701 0.74176,8.856791 0.106,7.8815672 V 4.7933582 L 1.6954,2.6803731 2.64904,1.2175373 Z M 3.2848,1.5426119 2.17222,2.6803731 0.58282,4.9558955 v 2.9256717 l 1.27152,1.9504477 1.27152,1.6253731 h 25.74828 l 1.74834,-2.112985 0.7947,-0.9752239 V 5.2809701 L 30.14566,3.4930597 29.19202,1.8676866 28.87414,1.5426119 Z"
     style="fill:#1d272e;stroke-width:0.160729"
     id="path8" />
  <path
     d="m 14.72848,1.8676866 h 2.22516 l 1.43046,0.6501492 0.95364,0.6501493 0.95364,1.3002985 0.47682,1.1377612 V 7.3939552 L 19.9735,9.0193284 18.86092,10.15709 17.74834,10.807239 16.7947,11.132313 H 14.72848 L 13.29802,10.644701 11.86756,9.344403 11.2318,8.5317164 10.91392,7.5564925 V 5.2809701 l 0.63576,-1.3002985 1.43046,-1.3002985 z m 0.47682,0.8126865 -1.5894,0.6501493 -1.43046,1.3002985 -0.47682,1.3002985 v 1.3002985 l 0.95364,1.6253731 0.7947,0.6501493 1.11258,0.6501497 0.7947,0.162537 h 1.27152 L 18.22516,9.5069403 19.33774,8.3691791 19.9735,7.0688806 V 5.9311194 L 19.33774,4.7933582 18.06622,3.4930597 16.63576,2.6803731 Z"
     style="fill:#1c272d;stroke-width:0.160729"
     id="path10" />
  <path
     d="m 15.68212,3.3305224 0.63576,0.1625373 0.15894,2.4380597 0.15894,1.1377612 L 15.36424,7.8815672 14.4106,8.856791 13.6159,8.6942537 13.77484,7.8815672 14.88742,6.743806 15.36424,5.9311194 15.52318,3.4930597 Z"
     style="fill:#1c272e;stroke-width:0.160729"
     id="path12" />
  <path
     d="m 15.68212,3.3305224 0.47682,0.1625373 z m -0.15894,0.1625373 h 0.15894 v 2.4380597 h -0.15894 z m 0.63576,0 h 0.15894 v 2.4380597 h -0.15894 z m -0.7947,2.4380597 z m 0.95364,0 z M 15.2053,6.0936567 Z m 1.27152,0.1625373 h 0.15894 V 7.0688806 H 16.47682 Z M 15.04636,6.4187313 Z M 14.88742,6.743806 Z m -0.15894,0.1625373 z m -0.15894,0.1625373 z m 1.5894,0 0.31788,0.1625373 z M 14.4106,7.2314179 Z m 1.27152,0 0.47682,0.1625373 z m -1.43046,0.1625373 z m 1.27152,0 z m -1.43046,0.1625373 z m 1.27152,0 z m -1.43046,0.1625374 z m 1.27152,0 z m -1.43046,0.1625373 z m 1.27152,0 z M 14.88742,8.0441045 Z M 13.6159,8.2066418 Z m 1.11258,0 z M 14.56954,8.3691791 Z M 14.4106,8.5317164 Z M 13.77484,8.6942537 14.4106,8.856791 Z"
     style="fill:#202b32;stroke-width:0.160729"
     id="path14" />
  <path
     d="m 15.2053,2.5178358 h 1.43046 V 2.6803731 H 15.2053 Z m -0.63576,0.1625373 0.63576,0.1625373 z m 2.06622,0 z m -2.3841,0.1625373 0.31788,0.1625374 z m 2.54304,0 0.31788,0.1625374 z m -2.86092,0.1625374 0.31788,0.1625373 z m 3.1788,0 0.31788,0.1625373 z m -3.49668,0.1625373 0.31788,0.1625373 z m 3.81456,0 0.31788,0.1625373 z m -3.9735,0.1625373 z m 4.29138,0 0.31788,0.1625373 z m -4.60926,0.1625373 0.31788,0.1625373 z m 4.92714,0 z M 12.98014,3.655597 Z m 5.24502,0 z M 12.8212,3.8181343 Z m 5.5629,0 z m -5.72184,0.1625373 z m 5.88078,0 z M 12.50332,4.143209 Z m 6.19866,0 z m -6.3576,0.1625373 z m 6.51654,0 z m -6.67548,0.1625373 z m 6.83442,0 z M 12.0265,4.6308209 Z m 7.1523,0 z m 0.15894,0.1625373 z m 0.15894,0.1625373 z m -7.62912,0.1625373 z m 7.78806,0.1625373 z m -7.947,0.1625374 z m -0.15894,0.4876119 h 0.15894 v 1.3002985 h -0.15894 z m 0.15894,1.3002985 z"
     style="fill:#202b32;stroke-width:0.160729"
     id="path16" />
  <path
     d="m 14.4106,2.0302239 z m -0.47682,0.1625373 0.47682,0.1625373 z m -0.31788,0.1625373 0.31788,0.1625373 z m -0.31788,0.1625373 0.31788,0.1625373 z m -0.31788,0.1625373 0.31788,0.1625373 z M 12.8212,2.8429104 Z M 12.50332,3.0054478 12.8212,3.1679851 Z M 12.34438,3.1679851 Z M 12.18544,3.3305224 Z M 12.0265,3.4930597 Z M 11.86756,3.655597 Z M 11.70862,3.8181343 Z M 11.54968,3.9806716 Z M 11.39074,4.143209 Z M 11.2318,4.4682836 Z m -0.15894,0.3250746 z m -0.15894,0.4876119 h 0.15894 v 2.2755224 h -0.15894 z m 0.15894,2.2755224 z m 0.15894,0.487612 z m 0.15894,0.4876119 z m 0.15894,0.1625373 z m 0.15894,0.1625373 z m 0.15894,0.1625374 z M 12.0265,9.344403 Z m 0.15894,0.1625373 z m 0.15894,0.1625373 z m 0.15894,0.1625373 z m 0.15894,0.1625373 z m 0.15894,0.1625378 0.31788,0.162537 z m 0.31788,0.162537 z m 0.15894,0.162537 0.31788,0.162537 z m 0.31788,0.162537 0.63576,0.162538 z m 0.63576,0.162538 z"
     style="fill:#202b32;stroke-width:0.160729"
     id="path18" />
  <path
     d="m 11.86756,7.5564925 z m 0.15894,0.3250747 z m 0.15894,0.3250746 z m 0.15894,0.1625373 z m 0.15894,0.3250746 z m 0.15894,0.1625373 z m 0.15894,0.1625374 z m 0.15894,0.1625373 z m 0.15894,0.1625373 0.31788,0.1625373 z m 0.31788,0.1625373 0.31788,0.1625373 z m 0.31788,0.1625373 z m 0.15894,0.1625373 z m 0.15894,0.1625373 0.47682,0.1625378 z m 0.47682,0.1625378 h 0.7947 v 0.162537 h -0.7947 z"
     style="fill:#202b32;stroke-width:0.160729"
     id="path20" />
  <path
     d="M 19.9735,8.3691791 Z M 19.81456,8.6942537 Z M 19.65562,9.0193284 Z M 19.49668,9.1818657 Z M 19.33774,9.344403 Z M 19.1788,9.5069403 Z M 19.01986,9.6694776 Z M 18.86092,9.8320149 Z M 18.54304,9.9945522 18.86092,10.15709 Z M 18.3841,10.15709 Z m -0.31788,0.162537 0.31788,0.162537 z m -0.31788,0.162537 0.31788,0.162537 z m -0.63576,0.162537 0.63576,0.162538 z m -0.15894,0.162538 z"
     style="fill:#202b32;stroke-width:0.160729"
     id="path22" />
  <path
     d="m 16.47682,2.5178358 z m 0.15894,0.1625373 z m 0.15894,0.1625373 0.31788,0.1625374 z m 0.31788,0.1625374 0.31788,0.1625373 z m 0.31788,0.1625373 0.31788,0.1625373 z m 0.31788,0.1625373 0.31788,0.1625373 z m 0.31788,0.1625373 z m 0.15894,0.1625373 z m 0.15894,0.1625373 z m 0.15894,0.1625373 z m 0.15894,0.1625374 z m 0.15894,0.1625373 z m 0.15894,0.1625373 z m 0.15894,0.1625373 z m 0.15894,0.1625373 z m 0.15894,0.1625373 z m 0.15894,0.3250746 z"
     style="fill:#202b32;stroke-width:0.160729"
     id="path24" />
  <path
     d="m 20.45032,5.2809701 z m 0.15894,0.3250747 h 0.15894 v 1.7879104 h -0.15894 z m -0.15894,1.7879104 z"
     style="fill:#202b32;stroke-width:0.160729"
     id="path26" />
  <path
     d="m 17.27152,9.8320149 0.47682,0.1625373 z m -0.31788,0.1625373 0.31788,0.1625378 z m -0.31788,0.1625378 0.31788,0.162537 z m -1.27152,0.162537 h 1.27152 v 0.162537 h -1.27152 z"
     style="fill:#202b32;stroke-width:0.160729"
     id="path28" />
  <path
     d="m 19.81456,5.4435075 z m 0.15894,0.4876119 h 0.15894 V 7.0688806 H 19.9735 Z m -0.15894,1.1377612 z"
     style="fill:#202b31;stroke-width:0.160729"
     id="path30" />
  <path
     d="m 15.2053,2.5178358 h 1.27152 V 2.6803731 H 15.2053 Z m -0.31788,0.1625373 0.31788,0.1625373 z"
     style="fill:#202b32;stroke-width:0.160729"
     id="path32" />
  <path
     d="m 11.54968,6.0936567 h 0.15894 v 1.1377612 h -0.15894 z m 0.15894,1.1377612 z"
     style="fill:#202b32;stroke-width:0.160729"
     id="path34" />
  <path
     d="M 12.50332,3.0054478 Z M 12.34438,3.1679851 Z M 12.18544,3.3305224 Z M 12.0265,3.4930597 Z M 11.86756,3.655597 Z M 11.70862,3.8181343 Z M 11.54968,3.9806716 Z M 11.39074,4.143209 Z"
     style="fill:#202c33;stroke-width:0.160729"
     id="path36" />
  <path
     d="m 18.70198,2.8429104 0.31788,0.1625374 z m 0.31788,0.1625374 z m 0.15894,0.1625373 z m 0.15894,0.1625373 z m 0.15894,0.1625373 z m 0.15894,0.1625373 z"
     style="fill:#212d35;stroke-width:0.160729"
     id="path38" />
  <path
     d="m 17.11258,2.0302239 z m 0.15894,0.1625373 0.63576,0.1625373 z m 0.63576,0.1625373 0.31788,0.1625373 z m 0.31788,0.1625373 z"
     style="fill:#202c33;stroke-width:0.160729"
     id="path40" />
  <path
     d="M 3.2848,1.5426119 Z M 3.12586,1.7051493 Z M 2.96692,1.8676866 Z M 2.80798,2.0302239 Z M 2.64904,2.1927612 Z M 2.4901,2.3552985 Z M 2.33116,2.5178358 Z M 2.17222,2.6803731 Z"
     style="fill:#27343c;stroke-width:0.160729"
     id="path42" />
  <path
     d="M 11.86756,9.1818657 Z M 12.0265,9.344403 Z m 0.15894,0.1625373 z m 0.15894,0.1625373 z m 0.15894,0.1625373 z m 0.15894,0.1625373 z M 12.8212,10.15709 Z"
     style="fill:#202c33;stroke-width:0.160729"
     id="path44" />
  <path
     d="M 18.86092,8.6942537 Z M 18.70198,8.856791 Z M 18.54304,9.0193284 Z M 18.3841,9.1818657 Z M 18.22516,9.344403 Z m -0.31788,0.1625373 0.31788,0.1625373 z"
     style="fill:#202b32;stroke-width:0.160729"
     id="path46" />
  <path
     d="M 12.50332,3.1679851 Z M 12.34438,3.3305224 Z M 12.18544,3.4930597 Z M 12.0265,3.655597 Z M 11.86756,3.8181343 Z M 11.70862,3.9806716 Z M 11.54968,4.143209 Z"
     style="fill:#1d282f;stroke-width:0.160729"
     id="path48" />
  <path
     d="m 17.74834,10.482164 z m -0.63576,0.162537 0.63576,0.162538 z m -0.15894,0.162538 z"
     style="fill:#202b32;stroke-width:0.160729"
     id="path50" />
  <path
     d="M 20.60926,7.2314179 Z M 20.45032,7.3939552 Z"
     style="fill:#202b32;stroke-width:0.160729"
     id="path52" />
  <path
     d="M 11.54968,6.0936567 11.70862,6.743806 Z"
     style="fill:#1f2a31;stroke-width:0.160729"
     id="path54" />
  <path
     d="m 17.11258,2.0302239 z m 0.15894,0.1625373 0.47682,0.1625373 z"
     style="fill:#202b32;stroke-width:0.160729"
     id="path56" />
  <path
     d="M 19.9735,8.3691791 Z M 19.81456,8.6942537 Z"
     style="fill:#1f2a31;stroke-width:0.160729"
     id="path58" />
  <path
     d="M 20.29138,7.8815672 Z M 20.13244,8.2066418 Z"
     style="fill:#202c32;stroke-width:0.160729"
     id="path60" />
  <path
     d="M 19.49668,7.8815672 Z M 19.33774,8.0441045 Z"
     style="fill:#212c34;stroke-width:0.160729"
     id="path62" />
  <path
     d="M 19.65562,7.3939552 Z"
     style="fill:#202b31;stroke-width:0.160729"
     id="path64" />
  <path
     d="M 20.29138,4.7933582 Z"
     style="fill:#1f2b32;stroke-width:0.160729"
     id="path66" />
  <path
     d="M 19.81456,3.9806716 Z M 19.9735,4.143209 Z"
     style="fill:#202c34;stroke-width:0.160729"
     id="path68" />
  <path
     d="m 18.06622,10.319627 z m -0.15894,0.162537 z"
     style="fill:#1f2a31;stroke-width:0.160729"
     id="path70" />
  <path
     d="m 13.6159,8.5317164 z m 0.15894,0.1625373 z"
     style="fill:#202c33;stroke-width:0.160729"
     id="path72" />
  <path
     d="M 19.1788,8.3691791 Z M 19.01986,8.5317164 Z"
     style="fill:#212d34;stroke-width:0.160729"
     id="path74" />
  <path
     d="M 16.47682,6.9063433 Z M 16.31788,7.0688806 Z"
     style="fill:#202c33;stroke-width:0.160729"
     id="path76" />
  <path
     d="M 11.54968,6.743806 Z"
     style="fill:#202b32;stroke-width:0.160729"
     id="path78" />
  <path
     d="M 19.9735,6.5812687 Z"
     style="fill:#202b31;stroke-width:0.160729"
     id="path80" />
  <path
     d="M 19.81456,5.4435075 Z"
     style="fill:#1f2a31;stroke-width:0.160729"
     id="path82" />
  <path
     d="m 19.49668,5.1184328 z m 0.15894,0.1625373 z"
     style="fill:#202c33;stroke-width:0.160729"
     id="path84" />
  <path
     d="M 20.13244,4.4682836 Z"
     style="fill:#202b32;stroke-width:0.160729"
     id="path86" />
  <path
     d="m 16,3.3305224 z m 0.15894,0.1625373 z"
     style="fill:#202c33;stroke-width:0.160729"
     id="path88" />
  <path
     d="m 18.3841,2.6803731 0.31788,0.1625373 z"
     style="fill:#212d35;stroke-width:0.160729"
     id="path90" />
  <path
     d="m 16.15894,2.5178358 0.31788,0.1625373 z"
     style="fill:#1f2a31;stroke-width:0.160729"
     id="path92" />
  <path
     d="m 17.74834,2.1927612 z m 0.15894,0.1625373 z"
     style="fill:#202b32;stroke-width:0.160729"
     id="path94" />
  <path
     d="m 17.11258,2.0302239 z m 0.15894,0.1625373 z"
     style="fill:#1f2a31;stroke-width:0.160729"
     id="path96" />
  <path
     d="M 15.2053,10.15709 Z"
     style="fill:#222d35;stroke-width:0.160729"
     id="path98" />
  <path
     d="M 17.74834,9.6694776 Z"
     style="fill:#212d34;stroke-width:0.160729"
     id="path100" />
  <path
     d="M 17.90728,9.5069403 Z"
     style="fill:#232f37;stroke-width:0.160729"
     id="path102" />
  <path
     d="M 19.33774,8.2066418 Z"
     style="fill:#202b32;stroke-width:0.160729"
     id="path104" />
  <path
     d="M 20.29138,7.8815672 Z"
     style="fill:#202b31;stroke-width:0.160729"
     id="path106" />
  <path
     d="M 20.45032,7.7190299 Z"
     style="fill:#202c34;stroke-width:0.160729"
     id="path108" />
  <path
     d="M 19.65562,7.7190299 Z"
     style="fill:#1f2a31;stroke-width:0.160729"
     id="path110" />
  <path
     d="M 20.45032,7.5564925 Z"
     style="fill:#1f2b32;stroke-width:0.160729"
     id="path112" />
  <path
     d="M 11.86756,7.5564925 Z"
     style="fill:#202c33;stroke-width:0.160729"
     id="path114" />
  <path
     d="M 19.65562,7.3939552 Z"
     style="fill:#212d34;stroke-width:0.160729"
     id="path116" />
  <path
     d="M 11.70862,7.3939552 Z"
     style="fill:#1f2a31;stroke-width:0.160729"
     id="path118" />
  <path
     d="M 19.81456,7.2314179 Z"
     style="fill:#1f2a31;stroke-width:0.160729"
     id="path120" />
  <path
     d="M 19.9735,6.4187313 Z"
     style="fill:#1f2a31;stroke-width:0.160729"
     id="path122" />
  <path
     d="M 20.60926,5.9311194 Z"
     style="fill:#202b33;stroke-width:0.160729"
     id="path124" />
  <path
     d="M 20.60926,5.7685821 Z"
     style="fill:#202b32;stroke-width:0.160729"
     id="path126" />
  <path
     d="M 20.45032,5.2809701 Z"
     style="fill:#202c34;stroke-width:0.160729"
     id="path128" />
  <path
     d="M 20.29138,5.1184328 Z"
     style="fill:#1f2a31;stroke-width:0.160729"
     id="path130" />
  <path
     d="M 20.29138,4.7933582 Z"
     style="fill:#202c34;stroke-width:0.160729"
     id="path132" />
  <path
     d="M 20.13244,4.4682836 Z"
     style="fill:#202c34;stroke-width:0.160729"
     id="path134" />
  <path
     d="M 11.39074,4.4682836 Z"
     style="fill:#1d282f;stroke-width:0.160729"
     id="path136" />
  <path
     d="M 19.9735,4.3057463 Z"
     style="fill:#1f2b32;stroke-width:0.160729"
     id="path138" />
  <path
     d="M 19.65562,3.8181343 Z"
     style="fill:#202b32;stroke-width:0.160729"
     id="path140" />
  <path
     d="M 15.68212,3.4930597 Z"
     style="fill:#1d282f;stroke-width:0.160729"
     id="path142" />
  <path
     d="M 15.84106,3.3305224 Z"
     style="fill:#202b32;stroke-width:0.160729"
     id="path144" />
  <path
     d="M 18.70198,2.8429104 Z"
     style="fill:#202b32;stroke-width:0.160729"
     id="path146" />
  <path
     d="M 18.3841,2.6803731 Z"
     style="fill:#202b31;stroke-width:0.160729"
     id="path148" />
</svg>
