<?xml version="1.0" encoding="UTF-8" standalone="no"?>
<svg
   xmlns:dc="http://purl.org/dc/elements/1.1/"
   xmlns:cc="http://creativecommons.org/ns#"
   xmlns:rdf="http://www.w3.org/1999/02/22-rdf-syntax-ns#"
   xmlns:svg="http://www.w3.org/2000/svg"
   xmlns="http://www.w3.org/2000/svg"
   id="svg"
   version="1.1"
   style="display:block"
   viewBox="0 0 32 13"
   width="32"
   height="13">
  <metadata
     id="metadata783">
    <rdf:RDF>
      <cc:Work
         rdf:about="">
        <dc:format>image/svg+xml</dc:format>
        <dc:type
           rdf:resource="http://purl.org/dc/dcmitype/StillImage" />
        <dc:title></dc:title>
      </cc:Work>
    </rdf:RDF>
  </metadata>
  <defs
     id="defs781" />
  <path
     d="m 0.74176,1.055 h 30.51648 v 0.136125 h 0.15894 V 1.32725 h 0.15894 v 0.136125 h 0.15894 V 1.5995 H 31.894 v 9.664875 h -0.15894 v 0.27225 h -0.15894 v 0.136125 h -0.15894 v 0.136125 H 31.25824 V 11.945 H 0.74176 V 11.808875 H 0.58282 V 11.67275 H 0.42388 V 11.536625 H 0.26494 v -0.27225 H 0.106 V 1.5995 H 0.26494 V 1.463375 H 0.42388 V 1.32725 H 0.58282 V 1.191125 h 0.15894 z"
     style="fill:#26333b;stroke-width:0.147091"
     id="path4" />
  <path
     d="m 15.04636,2.41625 h 1.5894 v 0.136125 h 0.63576 V 2.6885 h 0.47682 v 0.136125 h 0.31788 V 2.96075 h 0.31788 v 0.136125 h 0.31788 V 3.233 h 0.15894 v 0.136125 h 0.15894 V 3.50525 h 0.15894 v 0.136125 h 0.15894 V 3.7775 h 0.15894 v 0.136125 h 0.15894 V 4.04975 h 0.15894 V 4.322 h 0.15894 v 0.136125 h 0.15894 v 0.27225 h 0.15894 V 5.13875 h 0.15894 v 0.5445 h 0.15894 V 7.452875 H 20.45032 V 7.86125 H 20.29138 V 8.1335 H 20.13244 V 8.40575 H 19.9735 V 8.678 H 19.81456 V 8.814125 H 19.65562 V 8.95025 h -0.15894 v 0.136125 h -0.15894 v 0.27225 H 19.01986 V 9.49475 H 18.86092 V 9.630875 H 18.70198 V 9.767 h -0.15894 v 0.136125 h -0.31788 v 0.136125 h -0.31788 v 0.136125 H 17.43046 V 10.3115 h -0.47682 v 0.136125 H 14.88742 V 10.3115 H 14.4106 V 10.175375 H 14.09272 V 10.03925 H 13.77484 V 9.903125 H 13.45696 V 9.767 H 13.29802 V 9.630875 H 12.98014 V 9.49475 H 12.8212 V 9.358625 H 12.66226 V 9.2225 H 12.50332 V 9.086375 H 12.34438 V 8.95025 H 12.18544 V 8.678 H 12.0265 V 8.541875 h -0.15894 v -0.27225 h -0.15894 v -0.27225 h -0.15894 v -0.5445 h -0.15894 v -0.5445 H 11.2318 v -1.089 h 0.15894 v -0.5445 h 0.15894 V 4.8665 h 0.15894 V 4.59425 h 0.15894 V 4.322 H 12.0265 V 4.185875 h 0.15894 V 4.04975 h 0.15894 V 3.7775 h 0.15894 V 3.641375 h 0.15894 V 3.50525 H 12.8212 V 3.369125 h 0.31788 V 3.233 h 0.15894 V 3.096875 h 0.15894 V 2.96075 h 0.31788 V 2.824625 h 0.31788 V 2.6885 h 0.47682 V 2.552375 h 0.47682 z"
     style="fill:#26333b;stroke-width:0.147091"
     id="path6" />
  <path
     d="m 0.74176,1.055 h 30.51648 v 0.136125 h 0.15894 V 1.32725 h 0.15894 v 0.408375 h 0.15894 V 11.12825 H 31.41718 V 1.735625 H 31.25824 V 1.463375 H 30.94036 V 1.32725 H 1.05964 V 1.463375 H 0.74176 V 1.5995 H 0.58282 V 1.735625 H 0.42388 V 11.12825 H 0.58282 V 11.4005 H 0.42388 V 11.264375 H 0.106 V 1.5995 H 0.26494 V 1.463375 H 0.42388 V 1.32725 H 0.58282 V 1.191125 H 0.74176 Z M 0.58282,11.4005 h 0.15894 v 0.136125 H 0.58282 Z m 0.15894,0.136125 H 1.05964 V 11.67275 H 30.94036 V 11.945 H 0.9007 V 11.67275 H 0.74176 Z"
     style="fill:#1d272c;stroke-width:0.147091"
     id="path8" />
  <path
     d="m 15.04636,2.41625 h 1.5894 v 0.136125 h 0.63576 V 2.6885 h 0.47682 v 0.136125 h 0.31788 V 2.96075 h 0.31788 v 0.136125 h 0.31788 V 3.233 h 0.15894 v 0.136125 h 0.15894 V 3.50525 h 0.15894 v 0.136125 h 0.15894 V 3.7775 h 0.15894 v 0.136125 h 0.15894 V 4.04975 h 0.15894 V 4.322 h 0.15894 v 0.136125 h 0.15894 v 0.27225 h 0.15894 V 5.13875 h 0.15894 v 0.5445 h 0.15894 V 7.452875 H 20.45032 V 7.86125 H 20.29138 V 8.1335 H 20.13244 V 8.40575 H 19.9735 V 8.678 H 19.81456 V 8.814125 H 19.65562 V 8.95025 h -0.15894 v 0.136125 h -0.15894 v 0.27225 H 19.01986 V 9.49475 H 18.86092 V 9.630875 H 18.70198 V 9.767 h -0.15894 v 0.136125 h -0.31788 v 0.136125 h -0.31788 v 0.136125 H 17.43046 V 10.3115 h -0.47682 v 0.136125 H 14.88742 V 10.3115 H 14.4106 V 10.175375 H 14.09272 V 10.03925 H 13.77484 V 9.903125 H 13.45696 V 9.767 H 13.29802 V 9.630875 H 12.98014 V 9.49475 H 12.8212 V 9.358625 H 12.66226 V 9.2225 H 12.50332 V 9.086375 H 12.34438 V 8.95025 H 12.18544 V 8.678 H 12.0265 V 8.541875 h -0.15894 v -0.27225 h -0.15894 v -0.27225 h -0.15894 v -0.5445 h -0.15894 v -0.5445 H 11.2318 v -1.089 h 0.15894 v -0.5445 h 0.15894 V 4.8665 h 0.15894 V 4.59425 h 0.15894 V 4.322 H 12.0265 V 4.185875 h 0.15894 V 4.04975 h 0.15894 V 3.7775 h 0.15894 V 3.641375 h 0.15894 V 3.50525 H 12.8212 V 3.369125 h 0.31788 V 3.233 h 0.15894 V 3.096875 h 0.15894 V 2.96075 h 0.31788 V 2.824625 h 0.31788 V 2.6885 h 0.47682 V 2.552375 h 0.47682 z M 15.36424,3.233 V 3.369125 H 14.72848 V 3.50525 H 14.4106 V 3.641375 H 14.09272 V 3.7775 H 13.77484 V 3.913625 H 13.6159 V 4.04975 H 13.45696 V 4.185875 H 13.29802 V 4.322 H 13.13908 V 4.458125 H 12.98014 V 4.59425 H 12.8212 V 4.8665 H 12.66226 V 5.13875 H 12.50332 V 5.411 h -0.15894 v 0.408375 h -0.15894 v 1.089 h 0.15894 v 0.5445 h 0.15894 v 0.27225 h 0.15894 v 0.27225 h 0.15894 v 0.27225 h 0.15894 V 8.40575 h 0.15894 v 0.136125 h 0.15894 V 8.678 h 0.15894 V 8.814125 H 13.6159 V 8.95025 h 0.15894 v 0.136125 h 0.31788 V 9.2225 h 0.15894 v 0.136125 h 0.47682 V 9.49475 h 0.31788 v 0.136125 h 1.5894 V 9.49475 h 0.63576 V 9.358625 H 17.5894 V 9.2225 h 0.31788 V 9.086375 h 0.15894 V 8.95025 H 18.3841 V 8.814125 h 0.15894 V 8.678 h 0.15894 V 8.541875 h 0.15894 V 8.40575 h 0.15894 V 8.1335 H 19.1788 V 7.86125 h 0.15894 V 7.589 h 0.15894 V 7.180625 h 0.15894 V 5.68325 H 19.49668 V 5.274875 H 19.33774 V 5.002625 H 19.1788 V 4.730375 H 19.01986 V 4.59425 H 18.86092 V 4.322 H 18.70198 V 4.185875 H 18.54304 V 4.04975 H 18.3841 V 3.913625 H 18.06622 V 3.7775 H 17.90728 V 3.641375 H 17.5894 V 3.50525 H 17.11258 V 3.369125 H 16.47682 V 3.233 Z"
     style="fill:#1c272d;stroke-width:0.147091"
     id="path10" />
  <path
     d="m 0.106,1.5995 h 0.15894 v 9.52875 H 0.58282 V 11.4005 H 0.42388 V 11.264375 H 0.106 Z m 0.47682,9.801 h 0.15894 v 0.136125 H 0.58282 Z m 0.15894,0.136125 H 1.05964 V 11.67275 H 30.94036 V 11.945 H 0.9007 V 11.67275 H 0.74176 Z"
     style="fill:#1d272c;stroke-width:0.147091"
     id="path12" />
  <path
     d="m 15.68212,3.641375 h 0.7947 v 2.45025 h 0.15894 V 6.22775 h 0.15894 v 0.5445 H 16.63576 V 7.0445 H 16.31788 V 7.180625 H 15.68212 V 7.31675 H 15.52318 V 7.452875 H 15.36424 V 7.589 H 15.2053 V 7.725125 H 14.88742 V 7.86125 H 14.72848 V 7.997375 H 14.56954 V 8.1335 H 14.4106 V 8.269625 H 14.25166 V 8.40575 H 13.93378 V 8.541875 H 13.6159 V 8.40575 H 13.45696 V 8.269625 H 13.29802 V 7.86125 H 13.6159 V 7.725125 h 0.15894 V 7.589 h 0.15894 V 7.452875 h 0.15894 V 7.31675 h 0.15894 V 7.180625 h 0.31788 V 7.0445 h 0.15894 V 6.908375 h 0.15894 V 6.77225 h 0.15894 V 6.636125 H 15.2053 V 6.22775 h 0.15894 V 6.091625 h 0.15894 V 3.7775 h 0.15894 z"
     style="fill:#1c272d;stroke-width:0.147091"
     id="path14" />
  <path
     d="m 15.04636,3.913625 h 0.15894 v 0.27225 H 15.04636 V 5.9555 H 14.88742 V 6.363875 H 14.72848 V 6.5 H 14.56954 V 6.636125 H 14.25166 V 6.77225 H 14.09272 V 6.908375 H 13.93378 V 7.0445 H 13.6159 V 7.180625 H 13.45696 V 7.31675 H 13.29802 V 7.452875 H 12.98014 V 6.636125 H 12.8212 v -0.27225 h 0.15894 V 5.68325 h 0.15894 V 5.274875 h 0.15894 v -0.27225 h 0.15894 V 4.8665 H 13.6159 V 4.730375 h 0.15894 V 4.59425 h 0.15894 V 4.458125 h 0.15894 V 4.322 h 0.15894 V 4.185875 h 0.31788 V 4.04975 h 0.47682 z"
     style="fill:#232f38;stroke-width:0.147091"
     id="path16" />
  <path
     d="m 13.45696,11.67275 h 17.4834 V 11.945 h -17.4834 z"
     style="fill:#1d272c;stroke-width:0.147091"
     id="path18" />
  <path
     d="m 31.0993,1.191125 h 0.31788 V 1.32725 h 0.15894 v 0.408375 h 0.15894 V 11.12825 H 31.41718 V 1.735625 H 31.25824 V 1.463375 H 30.94036 V 1.32725 h 0.15894 z"
     style="fill:#212d33;stroke-width:0.147091"
     id="path20" />
  <path
     d="M 0.74176,1.055 H 1.21858 V 1.191125 H 1.05964 v 0.27225 H 0.74176 V 1.5995 H 0.58282 V 1.735625 H 0.42388 V 11.12825 H 0.26494 V 1.463375 H 0.42388 V 1.32725 H 0.58282 V 1.191125 h 0.15894 z"
     style="fill:#1d272c;stroke-width:0.147091"
     id="path22" />
  <path
     d="m 31.57612,1.463375 h 0.15894 V 1.5995 H 31.894 v 9.664875 h -0.15894 v -9.52875 h -0.15894 z"
     style="fill:#504e2d;stroke-width:0.147091"
     id="path24" />
  <path
     d="m 0.106,1.5995 h 0.15894 v 9.664875 H 0.106 Z"
     style="fill:#213038;stroke-width:0.147091"
     id="path26" />
  <path
     d="M 0.42388,1.735625 H 0.58282 V 11.12825 H 0.42388 Z"
     style="fill:#243037;stroke-width:0.147091"
     id="path28" />
  <path
     d="m 31.57612,1.87175 h 0.15894 v 9.2565 h -0.15894 z"
     style="fill:#1d272c;stroke-width:0.147091"
     id="path30" />
  <path
     d="m 15.04636,11.808875 h 6.83442 V 11.945 h -6.83442 z"
     style="fill:#1e292e;stroke-width:0.147091"
     id="path32" />
  <path
     d="m 9.00664,11.808875 h 4.45032 V 11.945 H 9.00664 Z"
     style="fill:#1e292e;stroke-width:0.147091"
     id="path34" />
  <path
     d="m 31.41718,11.12825 h 0.31788 v 0.408375 h -0.15894 v 0.136125 h -0.15894 v 0.136125 H 31.25824 V 11.945 H 30.94036 V 11.536625 H 31.0993 V 11.4005 h 0.15894 v -0.136125 h 0.15894 z"
     style="fill:#1d272c;stroke-width:0.147091"
     id="path36" />
  <path
     d="m 15.52318,3.7775 h 0.15894 v 2.178 h -0.15894 z"
     style="fill:#1f2a32;stroke-width:0.147091"
     id="path38" />
  <path
     d="m 15.04636,11.808875 h 2.22516 V 11.945 h -2.22516 z"
     style="fill:#1e282e;stroke-width:0.147091"
     id="path40" />
  <path
     d="m 29.03308,11.808875 h 1.90728 V 11.945 h -1.90728 z"
     style="fill:#1e292e;stroke-width:0.147091"
     id="path42" />
  <path
     d="M 0.26494,11.12825 H 0.58282 V 11.4005 H 0.42388 V 11.264375 H 0.26494 Z m 0.31788,0.27225 h 0.15894 v 0.136125 H 0.58282 Z m 0.15894,0.136125 H 1.05964 V 11.67275 H 1.37752 V 11.945 H 0.9007 V 11.67275 H 0.74176 Z"
     style="fill:#1d272c;stroke-width:0.147091"
     id="path44" />
  <path
     d="m 15.04636,4.185875 h 0.15894 v 1.6335 h -0.15894 z"
     style="fill:#24313a;stroke-width:0.147091"
     id="path46" />
  <path
     d="m 31.0993,1.191125 h 0.31788 V 1.32725 h 0.15894 v 0.408375 h 0.15894 V 1.87175 H 31.41718 V 1.735625 H 31.25824 V 1.463375 H 30.94036 V 1.32725 h 0.15894 z"
     style="fill:#1d272c;stroke-width:0.147091"
     id="path48" />
  <path
     d="M 0.26494,11.264375 H 0.42388 V 11.4005 h 0.15894 v 0.136125 H 0.74176 V 11.67275 H 0.9007 V 11.945 H 0.74176 V 11.808875 H 0.58282 V 11.67275 H 0.42388 V 11.536625 H 0.26494 Z m 0.31788,0 H 0.74176 V 11.4005 H 0.58282 Z M 0.74176,11.4005 H 0.9007 v 0.136125 H 0.74176 Z"
     style="fill:#1f2b31;stroke-width:0.147091"
     id="path50" />
  <path
     d="m 15.04636,2.41625 h 1.5894 v 0.136125 h -1.5894 z"
     style="fill:#1f2930;stroke-width:0.147091"
     id="path52" />
  <path
     d="m 12.18544,5.819375 h 0.15894 v 1.089 h -0.15894 z"
     style="fill:#25323b;stroke-width:0.147091"
     id="path54" />
  <path
     d="m 11.2318,5.819375 h 0.15894 v 1.089 H 11.2318 Z"
     style="fill:#202b33;stroke-width:0.147091"
     id="path56" />
  <path
     d="m 31.25824,11.264375 h 0.15894 V 11.4005 H 31.25824 Z M 31.0993,11.4005 h 0.15894 v 0.136125 H 31.0993 Z m 0.31788,0 h 0.31788 v 0.136125 h -0.15894 v 0.136125 h -0.15894 v 0.136125 h -0.15894 v -0.27225 h 0.15894 z"
     style="fill:#212c32;stroke-width:0.147091"
     id="path58" />
  <path
     d="m 13.93378,7.452875 h 0.15894 V 7.589 H 13.93378 Z M 13.77484,7.589 h 0.15894 V 7.725125 H 13.77484 Z M 13.6159,7.725125 h 0.15894 V 7.86125 H 13.6159 Z M 13.29802,7.86125 h 0.31788 v 0.136125 h -0.15894 v 0.27225 h -0.15894 z"
     style="fill:#1c272d;stroke-width:0.147091"
     id="path60" />
  <path
     d="M 1.05964,1.32725 H 1.21858 V 1.463375 H 1.05964 Z M 0.74176,1.463375 H 1.05964 V 1.5995 H 0.9007 V 1.735625 H 0.74176 V 1.87175 H 0.58282 V 1.5995 h 0.15894 z"
     style="fill:#27343b;stroke-width:0.147091"
     id="path62" />
  <path
     d="m 19.65562,6.091625 h 0.15894 V 6.77225 h -0.15894 z"
     style="fill:#202b33;stroke-width:0.147091"
     id="path64" />
  <path
     d="M 20.60926,6.091625 H 20.7682 V 6.77225 h -0.15894 z"
     style="fill:#25313b;stroke-width:0.147091"
     id="path66" />
  <path
     d="m 31.57612,1.463375 h 0.15894 V 1.5995 H 31.894 v 0.408375 h -0.15894 v -0.27225 h -0.15894 z"
     style="fill:#3d5062;stroke-width:0.147091"
     id="path68" />
  <path
     d="m 14.88742,10.3115 h 0.63576 v 0.136125 h -0.63576 z"
     style="fill:#1e2830;stroke-width:0.147091"
     id="path70" />
  <path
     d="m 15.68212,9.630875 h 0.63576 V 9.767 h -0.63576 z"
     style="fill:#1f2a32;stroke-width:0.147091"
     id="path72" />
  <path
     d="m 15.2053,6.22775 h 0.15894 V 6.636125 H 15.2053 Z M 15.04636,6.636125 H 15.2053 V 6.77225 h -0.15894 z"
     style="fill:#1e282f;stroke-width:0.147091"
     id="path74" />
  <path
     d="m 12.18544,5.819375 h 0.15894 v 0.5445 h -0.15894 z"
     style="fill:#25313b;stroke-width:0.147091"
     id="path76" />
  <path
     d="m 13.93378,4.322 h 0.15894 v 0.136125 h -0.15894 z m -0.15894,0.136125 h 0.15894 V 4.59425 H 13.77484 Z M 13.6159,4.59425 h 0.15894 V 4.730375 H 13.6159 Z M 13.45696,4.730375 H 13.6159 V 4.8665 h -0.15894 z"
     style="fill:#25323b;stroke-width:0.147091"
     id="path78" />
  <path
     d="m 15.04636,2.41625 h 0.63576 v 0.136125 h -0.63576 z"
     style="fill:#1f2931;stroke-width:0.147091"
     id="path80" />
  <path
     d="M 0.74176,1.055 H 1.05964 V 1.191125 H 0.74176 Z M 0.58282,1.191125 H 0.74176 V 1.32725 H 0.58282 Z M 0.42388,1.32725 H 0.58282 V 1.463375 H 0.42388 Z"
     style="fill:#1a2229;stroke-width:0.147091"
     id="path82" />
  <path
     d="M 0.58282,11.67275 H 0.9007 V 11.945 H 0.74176 V 11.808875 H 0.58282 Z"
     style="fill:#283641;stroke-width:0.147091"
     id="path84" />
  <path
     d="m 0.106,10.856 h 0.15894 v 0.408375 H 0.106 Z"
     style="fill:#293c45;stroke-width:0.147091"
     id="path86" />
  <path
     d="m 18.70198,8.541875 h 0.15894 V 8.678 H 18.70198 Z M 18.54304,8.678 h 0.15894 V 8.814125 H 18.54304 Z M 18.3841,8.814125 h 0.15894 V 8.95025 H 18.3841 Z"
     style="fill:#1d272f;stroke-width:0.147091"
     id="path88" />
  <path
     d="m 20.45032,7.0445 h 0.15894 v 0.408375 h -0.15894 z"
     style="fill:#202b33;stroke-width:0.147091"
     id="path90" />
  <path
     d="m 13.45696,4.04975 h 0.15894 v 0.136125 h -0.15894 z m -0.15894,0.136125 h 0.15894 V 4.322 H 13.29802 Z M 13.13908,4.322 h 0.15894 v 0.136125 h -0.15894 z"
     style="fill:#27343c;stroke-width:0.147091"
     id="path92" />
  <path
     d="m 15.84106,3.50525 h 0.47682 v 0.136125 h -0.47682 z"
     style="fill:#25323c;stroke-width:0.147091"
     id="path94" />
  <path
     d="m 12.8212,3.369125 h 0.15894 V 3.50525 H 12.8212 Z M 12.66226,3.50525 h 0.15894 v 0.136125 h -0.15894 z m -0.15894,0.136125 h 0.15894 V 3.7775 h -0.15894 z"
     style="fill:#1e2931;stroke-width:0.147091"
     id="path96" />
  <path
     d="M 0.106,1.5995 H 0.26494 V 2.007875 H 0.106 Z"
     style="fill:#263940;stroke-width:0.147091"
     id="path98" />
  <path
     d="M 0.74176,1.191125 H 0.9007 V 1.32725 H 0.74176 Z M 0.58282,1.32725 H 0.74176 V 1.463375 H 0.58282 Z M 0.42388,1.463375 H 0.58282 V 1.5995 H 0.42388 Z"
     style="fill:#1c262b;stroke-width:0.147091"
     id="path100" />
  <path
     d="m 30.94036,11.808875 h 0.31788 V 11.945 h -0.31788 z"
     style="fill:#546371;stroke-width:0.147091"
     id="path102" />
  <path
     d="m 30.62248,11.808875 h 0.31788 V 11.945 h -0.31788 z"
     style="fill:#2d3c45;stroke-width:0.147091"
     id="path104" />
  <path
     d="m 29.03308,11.808875 h 0.31788 V 11.945 h -0.31788 z"
     style="fill:#1e292e;stroke-width:0.147091"
     id="path106" />
  <path
     d="M 0.9007,11.808875 H 1.21858 V 11.945 H 0.9007 Z"
     style="fill:#232c2e;stroke-width:0.147091"
     id="path108" />
  <path
     d="m 31.41718,11.536625 h 0.15894 v 0.136125 h -0.15894 z m -0.15894,0.136125 h 0.15894 v 0.136125 h -0.15894 z"
     style="fill:#445866;stroke-width:0.147091"
     id="path110" />
  <path
     d="m 0.26494,11.264375 h 0.15894 v 0.27225 H 0.26494 Z"
     style="fill:#33454e;stroke-width:0.147091"
     id="path112" />
  <path
     d="M 31.73506,10.992125 H 31.894 v 0.27225 h -0.15894 z"
     style="fill:#445766;stroke-width:0.147091"
     id="path114" />
  <path
     d="m 16.63576,10.3115 h 0.31788 v 0.136125 h -0.31788 z"
     style="fill:#222d35;stroke-width:0.147091"
     id="path116" />
  <path
     d="m 14.88742,10.3115 h 0.31788 v 0.136125 h -0.31788 z"
     style="fill:#202c34;stroke-width:0.147091"
     id="path118" />
  <path
     d="m 16.63576,9.49475 h 0.31788 v 0.136125 h -0.31788 z"
     style="fill:#1f2a32;stroke-width:0.147091"
     id="path120" />
  <path
     d="m 15.04636,9.49475 h 0.31788 v 0.136125 h -0.31788 z"
     style="fill:#233039;stroke-width:0.147091"
     id="path122" />
  <path
     d="m 13.13908,8.541875 h 0.15894 V 8.678 H 13.13908 Z M 13.29802,8.678 h 0.15894 v 0.136125 h -0.15894 z"
     style="fill:#212c34;stroke-width:0.147091"
     id="path124" />
  <path
     d="m 11.39074,7.452875 h 0.15894 v 0.27225 h -0.15894 z"
     style="fill:#232f38;stroke-width:0.147091"
     id="path126" />
  <path
     d="m 19.49668,7.180625 h 0.15894 v 0.27225 h -0.15894 z"
     style="fill:#1e282f;stroke-width:0.147091"
     id="path128" />
  <path
     d="M 14.25166,7.180625 H 14.4106 V 7.31675 H 14.25166 Z M 14.09272,7.31675 h 0.15894 v 0.136125 h -0.15894 z"
     style="fill:#1e2931;stroke-width:0.147091"
     id="path130" />
  <path
     d="m 12.18544,6.908375 h 0.15894 v 0.27225 h -0.15894 z"
     style="fill:#1e2931;stroke-width:0.147091"
     id="path132" />
  <path
     d="m 11.2318,6.908375 h 0.15894 v 0.27225 H 11.2318 Z"
     style="fill:#243039;stroke-width:0.147091"
     id="path134" />
  <path
     d="m 12.8212,6.636125 h 0.15894 v 0.27225 H 12.8212 Z"
     style="fill:#24313a;stroke-width:0.147091"
     id="path136" />
  <path
     d="m 15.2053,6.22775 h 0.15894 V 6.5 H 15.2053 Z"
     style="fill:#1f2930;stroke-width:0.147091"
     id="path138" />
  <path
     d="m 19.65562,6.091625 h 0.15894 v 0.27225 h -0.15894 z"
     style="fill:#202b33;stroke-width:0.147091"
     id="path140" />
  <path
     d="m 12.8212,6.091625 h 0.15894 v 0.27225 H 12.8212 Z"
     style="fill:#24313a;stroke-width:0.147091"
     id="path142" />
  <path
     d="m 12.18544,5.819375 h 0.15894 v 0.27225 h -0.15894 z"
     style="fill:#222e36;stroke-width:0.147091"
     id="path144" />
  <path
     d="m 11.2318,5.819375 h 0.15894 v 0.27225 H 11.2318 Z"
     style="fill:#212d35;stroke-width:0.147091"
     id="path146" />
  <path
     d="m 20.45032,5.68325 h 0.15894 V 5.9555 h -0.15894 z"
     style="fill:#1d2830;stroke-width:0.147091"
     id="path148" />
  <path
     d="m 20.45032,5.411 h 0.15894 v 0.27225 h -0.15894 z"
     style="fill:#212c34;stroke-width:0.147091"
     id="path150" />
  <path
     d="m 12.34438,5.411 h 0.15894 v 0.27225 h -0.15894 z"
     style="fill:#25323b;stroke-width:0.147091"
     id="path152" />
  <path
     d="m 11.39074,5.274875 h 0.15894 v 0.27225 h -0.15894 z"
     style="fill:#1e2930;stroke-width:0.147091"
     id="path154" />
  <path
     d="m 11.54968,4.8665 h 0.15894 v 0.27225 h -0.15894 z"
     style="fill:#1d282f;stroke-width:0.147091"
     id="path156" />
  <path
     d="m 18.3841,4.04975 h 0.15894 V 4.185875 H 18.3841 Z m 0.15894,0.136125 h 0.15894 V 4.322 h -0.15894 z"
     style="fill:#243039;stroke-width:0.147091"
     id="path158" />
  <path
     d="m 13.29802,4.04975 h 0.15894 v 0.136125 h -0.15894 z m -0.15894,0.136125 h 0.15894 V 4.322 h -0.15894 z"
     style="fill:#1f2a32;stroke-width:0.147091"
     id="path160" />
  <path
     d="m 19.1788,3.50525 h 0.15894 V 3.641375 H 19.1788 Z m 0.15894,0.136125 h 0.15894 V 3.7775 h -0.15894 z"
     style="fill:#222e37;stroke-width:0.147091"
     id="path162" />
  <path
     d="m 18.86092,3.233 h 0.15894 v 0.136125 h -0.15894 z m 0.15894,0.136125 H 19.1788 V 3.50525 h -0.15894 z"
     style="fill:#243039;stroke-width:0.147091"
     id="path164" />
  <path
     d="M 16.47682,3.233 H 16.7947 V 3.369125 H 16.47682 Z"
     style="fill:#202b33;stroke-width:0.147091"
     id="path166" />
  <path
     d="m 15.36424,3.233 h 0.31788 v 0.136125 h -0.31788 z"
     style="fill:#25323b;stroke-width:0.147091"
     id="path168" />
  <path
     d="m 15.04636,3.233 h 0.31788 v 0.136125 h -0.31788 z"
     style="fill:#212d35;stroke-width:0.147091"
     id="path170" />
  <path
     d="M 17.27152,2.552375 H 17.5894 V 2.6885 h -0.31788 z"
     style="fill:#24323a;stroke-width:0.147091"
     id="path172" />
  <path
     d="m 14.56954,2.552375 h 0.31788 V 2.6885 h -0.31788 z"
     style="fill:#1d282f;stroke-width:0.147091"
     id="path174" />
  <path
     d="m 16.63576,2.41625 h 0.31788 v 0.136125 h -0.31788 z"
     style="fill:#243039;stroke-width:0.147091"
     id="path176" />
  <path
     d="m 15.04636,2.41625 h 0.31788 v 0.136125 h -0.31788 z"
     style="fill:#212c34;stroke-width:0.147091"
     id="path178" />
  <path
     d="M 31.73506,2.007875 H 31.894 v 0.27225 h -0.15894 z"
     style="fill:#4e4e2d;stroke-width:0.147091"
     id="path180" />
  <path
     d="m 0.106,2.007875 h 0.15894 v 0.27225 H 0.106 Z"
     style="fill:#213038;stroke-width:0.147091"
     id="path182" />
  <path
     d="m 0.42388,1.735625 h 0.15894 v 0.27225 H 0.42388 Z"
     style="fill:#222d34;stroke-width:0.147091"
     id="path184" />
  <path
     d="m 31.57612,1.463375 h 0.15894 v 0.27225 h -0.15894 z"
     style="fill:#253239;stroke-width:0.147091"
     id="path186" />
  <path
     d="m 0.26494,1.463375 h 0.15894 v 0.27225 H 0.26494 Z"
     style="fill:#1e2a2f;stroke-width:0.147091"
     id="path188" />
  <path
     d="M 30.94036,11.808875 H 31.0993 V 11.945 h -0.15894 z"
     style="fill:#3d4f5c;stroke-width:0.147091"
     id="path190" />
  <path
     d="m 30.62248,11.808875 h 0.15894 V 11.945 h -0.15894 z"
     style="fill:#26323a;stroke-width:0.147091"
     id="path192" />
  <path
     d="m 29.03308,11.808875 h 0.15894 V 11.945 h -0.15894 z"
     style="fill:#1e282e;stroke-width:0.147091"
     id="path194" />
  <path
     d="m 13.29802,11.808875 h 0.15894 V 11.945 h -0.15894 z"
     style="fill:#1e282e;stroke-width:0.147091"
     id="path196" />
  <path
     d="M 1.21858,11.808875 H 1.37752 V 11.945 H 1.21858 Z"
     style="fill:#202a2d;stroke-width:0.147091"
     id="path198" />
  <path
     d="M 0.9007,11.808875 H 1.05964 V 11.945 H 0.9007 Z"
     style="fill:#323832;stroke-width:0.147091"
     id="path200" />
  <path
     d="M 0.74176,11.808875 H 0.9007 V 11.945 H 0.74176 Z"
     style="fill:#3f4f5f;stroke-width:0.147091"
     id="path202" />
  <path
     d="m 31.0993,11.67275 h 0.15894 v 0.136125 H 31.0993 Z"
     style="fill:#2d3b44;stroke-width:0.147091"
     id="path204" />
  <path
     d="m 0.58282,11.67275 h 0.15894 v 0.136125 H 0.58282 Z"
     style="fill:#324858;stroke-width:0.147091"
     id="path206" />
  <path
     d="M 30.94036,11.536625 H 31.0993 V 11.67275 H 30.94036 Z"
     style="fill:#1f2a2f;stroke-width:0.147091"
     id="path208" />
  <path
     d="m 30.78142,11.536625 h 0.15894 v 0.136125 h -0.15894 z"
     style="fill:#243037;stroke-width:0.147091"
     id="path210" />
  <path
     d="m 30.62248,11.536625 h 0.15894 v 0.136125 h -0.15894 z"
     style="fill:#26323a;stroke-width:0.147091"
     id="path212" />
  <path
     d="M 1.05964,11.536625 H 1.21858 V 11.67275 H 1.05964 Z"
     style="fill:#26323a;stroke-width:0.147091"
     id="path214" />
  <path
     d="M 0.9007,11.536625 H 1.05964 V 11.67275 H 0.9007 Z"
     style="fill:#1f292f;stroke-width:0.147091"
     id="path216" />
  <path
     d="M 0.42388,11.536625 H 0.58282 V 11.67275 H 0.42388 Z"
     style="fill:#314350;stroke-width:0.147091"
     id="path218" />
  <path
     d="m 31.57612,11.4005 h 0.15894 v 0.136125 h -0.15894 z"
     style="fill:#4a5e6f;stroke-width:0.147091"
     id="path220" />
  <path
     d="m 31.57612,11.264375 h 0.15894 V 11.4005 h -0.15894 z"
     style="fill:#31404a;stroke-width:0.147091"
     id="path222" />
  <path
     d="M 0.26494,11.264375 H 0.42388 V 11.4005 H 0.26494 Z"
     style="fill:#283841;stroke-width:0.147091"
     id="path224" />
  <path
     d="m 31.41718,11.12825 h 0.15894 v 0.136125 h -0.15894 z"
     style="fill:#1e292e;stroke-width:0.147091"
     id="path226" />
  <path
     d="m 0.42388,11.12825 h 0.15894 v 0.136125 H 0.42388 Z"
     style="fill:#1e282e;stroke-width:0.147091"
     id="path228" />
  <path
     d="m 0.106,11.12825 h 0.15894 v 0.136125 H 0.106 Z"
     style="fill:#304551;stroke-width:0.147091"
     id="path230" />
  <path
     d="M 31.73506,10.992125 H 31.894 v 0.136125 h -0.15894 z"
     style="fill:#3e4f5d;stroke-width:0.147091"
     id="path232" />
  <path
     d="m 31.41718,10.992125 h 0.15894 v 0.136125 h -0.15894 z"
     style="fill:#222d33;stroke-width:0.147091"
     id="path234" />
  <path
     d="M 0.42388,10.992125 H 0.58282 V 11.12825 H 0.42388 Z"
     style="fill:#212d33;stroke-width:0.147091"
     id="path236" />
  <path
     d="M 31.73506,10.856 H 31.894 v 0.136125 h -0.15894 z"
     style="fill:#454833;stroke-width:0.147091"
     id="path238" />
  <path
     d="m 0.106,10.856 h 0.15894 v 0.136125 H 0.106 Z"
     style="fill:#263740;stroke-width:0.147091"
     id="path240" />
  <path
     d="M 31.73506,10.719875 H 31.894 V 10.856 h -0.15894 z"
     style="fill:#4d4d2a;stroke-width:0.147091"
     id="path242" />
  <path
     d="M 0.42388,10.719875 H 0.58282 V 10.856 H 0.42388 Z"
     style="fill:#243038;stroke-width:0.147091"
     id="path244" />
  <path
     d="M 0.106,10.719875 H 0.26494 V 10.856 H 0.106 Z"
     style="fill:#213039;stroke-width:0.147091"
     id="path246" />
  <path
     d="m 16.95364,10.3115 h 0.15894 v 0.136125 h -0.15894 z"
     style="fill:#243039;stroke-width:0.147091"
     id="path248" />
  <path
     d="m 16.63576,10.3115 h 0.15894 v 0.136125 h -0.15894 z"
     style="fill:#202b32;stroke-width:0.147091"
     id="path250" />
  <path
     d="m 16.47682,10.3115 h 0.15894 v 0.136125 h -0.15894 z"
     style="fill:#1e2830;stroke-width:0.147091"
     id="path252" />
  <path
     d="m 15.2053,10.3115 h 0.15894 v 0.136125 H 15.2053 Z"
     style="fill:#1f2931;stroke-width:0.147091"
     id="path254" />
  <path
     d="m 14.88742,10.3115 h 0.15894 v 0.136125 h -0.15894 z"
     style="fill:#232f37;stroke-width:0.147091"
     id="path256" />
  <path
     d="m 14.72848,10.3115 h 0.15894 v 0.136125 h -0.15894 z"
     style="fill:#25323b;stroke-width:0.147091"
     id="path258" />
  <path
     d="M 17.43046,10.175375 H 17.5894 V 10.3115 h -0.15894 z"
     style="fill:#222e36;stroke-width:0.147091"
     id="path260" />
  <path
     d="m 17.27152,10.175375 h 0.15894 V 10.3115 h -0.15894 z"
     style="fill:#1f2a31;stroke-width:0.147091"
     id="path262" />
  <path
     d="m 14.4106,10.175375 h 0.15894 V 10.3115 H 14.4106 Z"
     style="fill:#202c34;stroke-width:0.147091"
     id="path264" />
  <path
     d="M 14.25166,10.175375 H 14.4106 V 10.3115 h -0.15894 z"
     style="fill:#25313a;stroke-width:0.147091"
     id="path266" />
  <path
     d="m 17.90728,10.03925 h 0.15894 v 0.136125 h -0.15894 z"
     style="fill:#25313a;stroke-width:0.147091"
     id="path268" />
  <path
     d="m 17.74834,10.03925 h 0.15894 v 0.136125 h -0.15894 z"
     style="fill:#202b33;stroke-width:0.147091"
     id="path270" />
  <path
     d="m 14.09272,10.03925 h 0.15894 v 0.136125 h -0.15894 z"
     style="fill:#1e2830;stroke-width:0.147091"
     id="path272" />
  <path
     d="m 13.93378,10.03925 h 0.15894 v 0.136125 h -0.15894 z"
     style="fill:#232f37;stroke-width:0.147091"
     id="path274" />
  <path
     d="M 18.22516,9.903125 H 18.3841 V 10.03925 H 18.22516 Z"
     style="fill:#25323b;stroke-width:0.147091"
     id="path276" />
  <path
     d="m 18.06622,9.903125 h 0.15894 v 0.136125 h -0.15894 z"
     style="fill:#1f2a31;stroke-width:0.147091"
     id="path278" />
  <path
     d="m 13.6159,9.903125 h 0.15894 V 10.03925 H 13.6159 Z"
     style="fill:#232e37;stroke-width:0.147091"
     id="path280" />
  <path
     d="m 18.3841,9.767 h 0.15894 V 9.903125 H 18.3841 Z"
     style="fill:#212c34;stroke-width:0.147091"
     id="path282" />
  <path
     d="M 13.45696,9.767 H 13.6159 V 9.903125 H 13.45696 Z"
     style="fill:#1e2930;stroke-width:0.147091"
     id="path284" />
  <path
     d="m 13.29802,9.767 h 0.15894 v 0.136125 h -0.15894 z"
     style="fill:#24313a;stroke-width:0.147091"
     id="path286" />
  <path
     d="m 18.70198,9.630875 h 0.15894 V 9.767 h -0.15894 z"
     style="fill:#25323b;stroke-width:0.147091"
     id="path288" />
  <path
     d="m 18.54304,9.630875 h 0.15894 V 9.767 h -0.15894 z"
     style="fill:#1e2930;stroke-width:0.147091"
     id="path290" />
  <path
     d="m 16.15894,9.630875 h 0.15894 V 9.767 h -0.15894 z"
     style="fill:#1e2830;stroke-width:0.147091"
     id="path292" />
  <path
     d="m 16,9.630875 h 0.15894 V 9.767 H 16 Z"
     style="fill:#1f2a31;stroke-width:0.147091"
     id="path294" />
  <path
     d="m 15.68212,9.630875 h 0.15894 V 9.767 h -0.15894 z"
     style="fill:#1e2930;stroke-width:0.147091"
     id="path296" />
  <path
     d="m 13.13908,9.630875 h 0.15894 V 9.767 h -0.15894 z"
     style="fill:#212d35;stroke-width:0.147091"
     id="path298" />
  <path
     d="m 18.86092,9.49475 h 0.15894 v 0.136125 h -0.15894 z"
     style="fill:#222f37;stroke-width:0.147091"
     id="path300" />
  <path
     d="m 16.95364,9.49475 h 0.15894 v 0.136125 h -0.15894 z"
     style="fill:#1d272f;stroke-width:0.147091"
     id="path302" />
  <path
     d="M 16.63576,9.49475 H 16.7947 V 9.630875 H 16.63576 Z"
     style="fill:#222e37;stroke-width:0.147091"
     id="path304" />
  <path
     d="m 16.47682,9.49475 h 0.15894 v 0.136125 h -0.15894 z"
     style="fill:#24323b;stroke-width:0.147091"
     id="path306" />
  <path
     d="M 15.04636,9.49475 H 15.2053 V 9.630875 H 15.04636 Z"
     style="fill:#202c35;stroke-width:0.147091"
     id="path308" />
  <path
     d="m 14.88742,9.49475 h 0.15894 v 0.136125 h -0.15894 z"
     style="fill:#1e2830;stroke-width:0.147091"
     id="path310" />
  <path
     d="m 12.98014,9.49475 h 0.15894 v 0.136125 h -0.15894 z"
     style="fill:#1f2931;stroke-width:0.147091"
     id="path312" />
  <path
     d="M 19.01986,9.358625 H 19.1788 V 9.49475 h -0.15894 z"
     style="fill:#212d35;stroke-width:0.147091"
     id="path314" />
  <path
     d="m 17.27152,9.358625 h 0.15894 V 9.49475 h -0.15894 z"
     style="fill:#1f2931;stroke-width:0.147091"
     id="path316" />
  <path
     d="m 17.11258,9.358625 h 0.15894 V 9.49475 h -0.15894 z"
     style="fill:#232f37;stroke-width:0.147091"
     id="path318" />
  <path
     d="m 14.72848,9.358625 h 0.15894 V 9.49475 h -0.15894 z"
     style="fill:#25323b;stroke-width:0.147091"
     id="path320" />
  <path
     d="m 14.56954,9.358625 h 0.15894 V 9.49475 h -0.15894 z"
     style="fill:#212c34;stroke-width:0.147091"
     id="path322" />
  <path
     d="m 19.1788,9.2225 h 0.15894 V 9.358625 H 19.1788 Z"
     style="fill:#202b34;stroke-width:0.147091"
     id="path324" />
  <path
     d="m 17.5894,9.2225 h 0.15894 V 9.358625 H 17.5894 Z"
     style="fill:#1f2a32;stroke-width:0.147091"
     id="path326" />
  <path
     d="M 17.43046,9.2225 H 17.5894 V 9.358625 H 17.43046 Z"
     style="fill:#24313b;stroke-width:0.147091"
     id="path328" />
  <path
     d="M 14.25166,9.2225 H 14.4106 V 9.358625 H 14.25166 Z"
     style="fill:#222d36;stroke-width:0.147091"
     id="path330" />
  <path
     d="m 12.50332,9.2225 h 0.15894 v 0.136125 h -0.15894 z"
     style="fill:#25323b;stroke-width:0.147091"
     id="path332" />
  <path
     d="m 19.33774,9.086375 h 0.15894 V 9.2225 h -0.15894 z"
     style="fill:#212d34;stroke-width:0.147091"
     id="path334" />
  <path
     d="m 17.90728,9.086375 h 0.15894 V 9.2225 h -0.15894 z"
     style="fill:#1e2830;stroke-width:0.147091"
     id="path336" />
  <path
     d="m 17.74834,9.086375 h 0.15894 V 9.2225 h -0.15894 z"
     style="fill:#24313a;stroke-width:0.147091"
     id="path338" />
  <path
     d="m 13.93378,9.086375 h 0.15894 V 9.2225 h -0.15894 z"
     style="fill:#212c34;stroke-width:0.147091"
     id="path340" />
  <path
     d="m 19.49668,8.95025 h 0.15894 v 0.136125 h -0.15894 z"
     style="fill:#222e36;stroke-width:0.147091"
     id="path342" />
  <path
     d="m 18.06622,8.95025 h 0.15894 v 0.136125 h -0.15894 z"
     style="fill:#212c35;stroke-width:0.147091"
     id="path344" />
  <path
     d="m 13.77484,8.95025 h 0.15894 v 0.136125 h -0.15894 z"
     style="fill:#24313b;stroke-width:0.147091"
     id="path346" />
  <path
     d="m 13.6159,8.95025 h 0.15894 V 9.086375 H 13.6159 Z"
     style="fill:#1e2830;stroke-width:0.147091"
     id="path348" />
  <path
     d="m 12.34438,8.95025 h 0.15894 v 0.136125 h -0.15894 z"
     style="fill:#1e2930;stroke-width:0.147091"
     id="path350" />
  <path
     d="m 19.65562,8.814125 h 0.15894 V 8.95025 h -0.15894 z"
     style="fill:#24313a;stroke-width:0.147091"
     id="path352" />
  <path
     d="M 18.22516,8.814125 H 18.3841 V 8.95025 h -0.15894 z"
     style="fill:#243139;stroke-width:0.147091"
     id="path354" />
  <path
     d="M 13.45696,8.814125 H 13.6159 V 8.95025 h -0.15894 z"
     style="fill:#202b33;stroke-width:0.147091"
     id="path356" />
  <path
     d="m 12.18544,8.814125 h 0.15894 V 8.95025 h -0.15894 z"
     style="fill:#1f2b32;stroke-width:0.147091"
     id="path358" />
  <path
     d="m 19.65562,8.678 h 0.15894 v 0.136125 h -0.15894 z"
     style="fill:#1d2830;stroke-width:0.147091"
     id="path360" />
  <path
     d="m 12.0265,8.678 h 0.15894 V 8.814125 H 12.0265 Z"
     style="fill:#232e36;stroke-width:0.147091"
     id="path362" />
  <path
     d="M 19.81456,8.541875 H 19.9735 V 8.678 h -0.15894 z"
     style="fill:#202c34;stroke-width:0.147091"
     id="path364" />
  <path
     d="m 19.9735,8.40575 h 0.15894 V 8.541875 H 19.9735 Z"
     style="fill:#24313a;stroke-width:0.147091"
     id="path366" />
  <path
     d="m 18.70198,8.40575 h 0.15894 v 0.136125 h -0.15894 z"
     style="fill:#24313a;stroke-width:0.147091"
     id="path368" />
  <path
     d="m 13.93378,8.40575 h 0.15894 v 0.136125 h -0.15894 z"
     style="fill:#222e37;stroke-width:0.147091"
     id="path370" />
  <path
     d="m 12.98014,8.40575 h 0.15894 v 0.136125 h -0.15894 z"
     style="fill:#1f2a32;stroke-width:0.147091"
     id="path372" />
  <path
     d="M 11.86756,8.40575 H 12.0265 V 8.541875 H 11.86756 Z"
     style="fill:#1f2b32;stroke-width:0.147091"
     id="path374" />
  <path
     d="m 19.9735,8.269625 h 0.15894 V 8.40575 H 19.9735 Z"
     style="fill:#1f2931;stroke-width:0.147091"
     id="path376" />
  <path
     d="m 18.86092,8.269625 h 0.15894 V 8.40575 h -0.15894 z"
     style="fill:#212d36;stroke-width:0.147091"
     id="path378" />
  <path
     d="m 14.09272,8.269625 h 0.15894 V 8.40575 h -0.15894 z"
     style="fill:#202c34;stroke-width:0.147091"
     id="path380" />
  <path
     d="m 11.70862,8.269625 h 0.15894 V 8.40575 h -0.15894 z"
     style="fill:#233139;stroke-width:0.147091"
     id="path382" />
  <path
     d="m 20.13244,8.1335 h 0.15894 v 0.136125 h -0.15894 z"
     style="fill:#243039;stroke-width:0.147091"
     id="path384" />
  <path
     d="M 19.01986,8.1335 H 19.1788 V 8.269625 H 19.01986 Z"
     style="fill:#1f2930;stroke-width:0.147091"
     id="path386" />
  <path
     d="M 14.25166,8.1335 H 14.4106 V 8.269625 H 14.25166 Z"
     style="fill:#1f2931;stroke-width:0.147091"
     id="path388" />
  <path
     d="m 13.29802,8.1335 h 0.15894 v 0.136125 h -0.15894 z"
     style="fill:#202b33;stroke-width:0.147091"
     id="path390" />
  <path
     d="m 12.8212,8.1335 h 0.15894 V 8.269625 H 12.8212 Z"
     style="fill:#233038;stroke-width:0.147091"
     id="path392" />
  <path
     d="m 11.70862,8.1335 h 0.15894 v 0.136125 h -0.15894 z"
     style="fill:#1f2931;stroke-width:0.147091"
     id="path394" />
  <path
     d="m 20.13244,7.997375 h 0.15894 V 8.1335 h -0.15894 z"
     style="fill:#1f2a32;stroke-width:0.147091"
     id="path396" />
  <path
     d="M 19.01986,7.997375 H 19.1788 V 8.1335 h -0.15894 z"
     style="fill:#24313a;stroke-width:0.147091"
     id="path398" />
  <path
     d="m 14.56954,7.997375 h 0.15894 V 8.1335 h -0.15894 z"
     style="fill:#25323b;stroke-width:0.147091"
     id="path400" />
  <path
     d="m 14.4106,7.997375 h 0.15894 V 8.1335 H 14.4106 Z"
     style="fill:#1d2830;stroke-width:0.147091"
     id="path402" />
  <path
     d="M 12.66226,7.997375 H 12.8212 V 8.1335 h -0.15894 z"
     style="fill:#1f2a31;stroke-width:0.147091"
     id="path404" />
  <path
     d="m 11.54968,7.997375 h 0.15894 V 8.1335 h -0.15894 z"
     style="fill:#24313b;stroke-width:0.147091"
     id="path406" />
  <path
     d="m 20.29138,7.86125 h 0.15894 v 0.136125 h -0.15894 z"
     style="fill:#26323b;stroke-width:0.147091"
     id="path408" />
  <path
     d="m 19.1788,7.86125 h 0.15894 V 7.997375 H 19.1788 Z"
     style="fill:#202c33;stroke-width:0.147091"
     id="path410" />
  <path
     d="m 14.72848,7.86125 h 0.15894 v 0.136125 h -0.15894 z"
     style="fill:#233039;stroke-width:0.147091"
     id="path412" />
  <path
     d="m 13.29802,7.86125 h 0.15894 v 0.136125 h -0.15894 z"
     style="fill:#202a33;stroke-width:0.147091"
     id="path414" />
  <path
     d="M 12.66226,7.86125 H 12.8212 V 7.997375 H 12.66226 Z"
     style="fill:#25323b;stroke-width:0.147091"
     id="path416" />
  <path
     d="m 11.54968,7.86125 h 0.15894 v 0.136125 h -0.15894 z"
     style="fill:#1f2b33;stroke-width:0.147091"
     id="path418" />
  <path
     d="m 20.29138,7.725125 h 0.15894 V 7.86125 h -0.15894 z"
     style="fill:#202c34;stroke-width:0.147091"
     id="path420" />
  <path
     d="m 19.1788,7.725125 h 0.15894 V 7.86125 H 19.1788 Z"
     style="fill:#25323c;stroke-width:0.147091"
     id="path422" />
  <path
     d="m 14.88742,7.725125 h 0.15894 V 7.86125 h -0.15894 z"
     style="fill:#222e37;stroke-width:0.147091"
     id="path424" />
  <path
     d="M 13.45696,7.725125 H 13.6159 V 7.86125 h -0.15894 z"
     style="fill:#212c35;stroke-width:0.147091"
     id="path426" />
  <path
     d="m 12.50332,7.725125 h 0.15894 V 7.86125 h -0.15894 z"
     style="fill:#202b32;stroke-width:0.147091"
     id="path428" />
  <path
     d="m 19.33774,7.589 h 0.15894 v 0.136125 h -0.15894 z"
     style="fill:#202b33;stroke-width:0.147091"
     id="path430" />
  <path
     d="M 15.04636,7.589 H 15.2053 V 7.725125 H 15.04636 Z"
     style="fill:#202c34;stroke-width:0.147091"
     id="path432" />
  <path
     d="m 13.6159,7.589 h 0.15894 V 7.725125 H 13.6159 Z"
     style="fill:#232f37;stroke-width:0.147091"
     id="path434" />
  <path
     d="m 12.50332,7.589 h 0.15894 v 0.136125 h -0.15894 z"
     style="fill:#25323a;stroke-width:0.147091"
     id="path436" />
  <path
     d="m 20.45032,7.452875 h 0.15894 V 7.589 h -0.15894 z"
     style="fill:#25323c;stroke-width:0.147091"
     id="path438" />
  <path
     d="m 19.33774,7.452875 h 0.15894 V 7.589 h -0.15894 z"
     style="fill:#243139;stroke-width:0.147091"
     id="path440" />
  <path
     d="m 15.2053,7.452875 h 0.15894 V 7.589 H 15.2053 Z"
     style="fill:#1f2931;stroke-width:0.147091"
     id="path442" />
  <path
     d="m 13.77484,7.452875 h 0.15894 V 7.589 h -0.15894 z"
     style="fill:#24323a;stroke-width:0.147091"
     id="path444" />
  <path
     d="m 12.34438,7.452875 h 0.15894 V 7.589 h -0.15894 z"
     style="fill:#1e2930;stroke-width:0.147091"
     id="path446" />
  <path
     d="m 11.39074,7.452875 h 0.15894 V 7.589 h -0.15894 z"
     style="fill:#202b33;stroke-width:0.147091"
     id="path448" />
  <path
     d="m 20.45032,7.31675 h 0.15894 v 0.136125 h -0.15894 z"
     style="fill:#222e37;stroke-width:0.147091"
     id="path450" />
  <path
     d="m 15.52318,7.31675 h 0.15894 v 0.136125 h -0.15894 z"
     style="fill:#26323b;stroke-width:0.147091"
     id="path452" />
  <path
     d="m 12.98014,7.31675 h 0.15894 v 0.136125 h -0.15894 z"
     style="fill:#24303a;stroke-width:0.147091"
     id="path454" />
  <path
     d="m 12.34438,7.31675 h 0.15894 v 0.136125 h -0.15894 z"
     style="fill:#222e36;stroke-width:0.147091"
     id="path456" />
  <path
     d="m 11.39074,7.31675 h 0.15894 v 0.136125 h -0.15894 z"
     style="fill:#1e2830;stroke-width:0.147091"
     id="path458" />
  <path
     d="m 19.49668,7.180625 h 0.15894 V 7.31675 h -0.15894 z"
     style="fill:#202c34;stroke-width:0.147091"
     id="path460" />
  <path
     d="m 15.68212,7.180625 h 0.15894 V 7.31675 h -0.15894 z"
     style="fill:#243039;stroke-width:0.147091"
     id="path462" />
  <path
     d="m 12.34438,7.180625 h 0.15894 V 7.31675 h -0.15894 z"
     style="fill:#25333c;stroke-width:0.147091"
     id="path464" />
  <path
     d="m 20.45032,7.0445 h 0.15894 v 0.136125 h -0.15894 z"
     style="fill:#1f2931;stroke-width:0.147091"
     id="path466" />
  <path
     d="m 19.49668,7.0445 h 0.15894 v 0.136125 h -0.15894 z"
     style="fill:#233039;stroke-width:0.147091"
     id="path468" />
  <path
     d="m 16.31788,7.0445 h 0.15894 v 0.136125 h -0.15894 z"
     style="fill:#232e38;stroke-width:0.147091"
     id="path470" />
  <path
     d="m 16.15894,7.0445 h 0.15894 v 0.136125 h -0.15894 z"
     style="fill:#1f2931;stroke-width:0.147091"
     id="path472" />
  <path
     d="m 14.4106,7.0445 h 0.15894 V 7.180625 H 14.4106 Z"
     style="fill:#212d35;stroke-width:0.147091"
     id="path474" />
  <path
     d="m 16.47682,6.908375 h 0.15894 V 7.0445 h -0.15894 z"
     style="fill:#202b34;stroke-width:0.147091"
     id="path476" />
  <path
     d="m 14.56954,6.908375 h 0.15894 V 7.0445 h -0.15894 z"
     style="fill:#222f38;stroke-width:0.147091"
     id="path478" />
  <path
     d="m 12.18544,6.908375 h 0.15894 V 7.0445 h -0.15894 z"
     style="fill:#202b33;stroke-width:0.147091"
     id="path480" />
  <path
     d="m 11.2318,6.908375 h 0.15894 V 7.0445 H 11.2318 Z"
     style="fill:#222e36;stroke-width:0.147091"
     id="path482" />
  <path
     d="M 20.60926,6.77225 H 20.7682 V 6.908375 H 20.60926 Z"
     style="fill:#25333c;stroke-width:0.147091"
     id="path484" />
  <path
     d="m 19.65562,6.77225 h 0.15894 v 0.136125 h -0.15894 z"
     style="fill:#1e2830;stroke-width:0.147091"
     id="path486" />
  <path
     d="M 16.63576,6.77225 H 16.7947 V 6.908375 H 16.63576 Z"
     style="fill:#232e38;stroke-width:0.147091"
     id="path488" />
  <path
     d="m 14.72848,6.77225 h 0.15894 v 0.136125 h -0.15894 z"
     style="fill:#24313a;stroke-width:0.147091"
     id="path490" />
  <path
     d="m 12.18544,6.77225 h 0.15894 v 0.136125 h -0.15894 z"
     style="fill:#232e36;stroke-width:0.147091"
     id="path492" />
  <path
     d="m 11.2318,6.77225 h 0.15894 V 6.908375 H 11.2318 Z"
     style="fill:#202c34;stroke-width:0.147091"
     id="path494" />
  <path
     d="M 20.60926,6.636125 H 20.7682 V 6.77225 h -0.15894 z"
     style="fill:#25323b;stroke-width:0.147091"
     id="path496" />
  <path
     d="m 19.65562,6.636125 h 0.15894 V 6.77225 h -0.15894 z"
     style="fill:#1f2a32;stroke-width:0.147091"
     id="path498" />
  <path
     d="M 16.63576,6.636125 H 16.7947 V 6.77225 h -0.15894 z"
     style="fill:#1f2930;stroke-width:0.147091"
     id="path500" />
  <path
     d="M 14.25166,6.636125 H 14.4106 V 6.77225 h -0.15894 z"
     style="fill:#25323c;stroke-width:0.147091"
     id="path502" />
  <path
     d="m 12.18544,6.636125 h 0.15894 V 6.77225 h -0.15894 z"
     style="fill:#243039;stroke-width:0.147091"
     id="path504" />
  <path
     d="m 19.65562,6.363875 h 0.15894 V 6.5 h -0.15894 z"
     style="fill:#202c33;stroke-width:0.147091"
     id="path506" />
  <path
     d="m 12.18544,6.363875 h 0.15894 V 6.5 h -0.15894 z"
     style="fill:#25323c;stroke-width:0.147091"
     id="path508" />
  <path
     d="M 16.63576,6.22775 H 16.7947 V 6.363875 H 16.63576 Z"
     style="fill:#1f2a31;stroke-width:0.147091"
     id="path510" />
  <path
     d="m 15.2053,6.22775 h 0.15894 V 6.363875 H 15.2053 Z"
     style="fill:#202c33;stroke-width:0.147091"
     id="path512" />
  <path
     d="M 20.60926,6.091625 H 20.7682 V 6.22775 h -0.15894 z"
     style="fill:#25323b;stroke-width:0.147091"
     id="path514" />
  <path
     d="m 19.65562,6.091625 h 0.15894 V 6.22775 h -0.15894 z"
     style="fill:#1f2a32;stroke-width:0.147091"
     id="path516" />
  <path
     d="M 16.63576,6.091625 H 16.7947 V 6.22775 h -0.15894 z"
     style="fill:#233039;stroke-width:0.147091"
     id="path518" />
  <path
     d="m 15.2053,6.091625 h 0.15894 V 6.22775 H 15.2053 Z"
     style="fill:#25323b;stroke-width:0.147091"
     id="path520" />
  <path
     d="m 12.18544,6.091625 h 0.15894 V 6.22775 h -0.15894 z"
     style="fill:#233039;stroke-width:0.147091"
     id="path522" />
  <path
     d="m 16.47682,5.9555 h 0.15894 v 0.136125 h -0.15894 z"
     style="fill:#222d35;stroke-width:0.147091"
     id="path524" />
  <path
     d="m 15.36424,5.9555 h 0.15894 v 0.136125 h -0.15894 z"
     style="fill:#232f37;stroke-width:0.147091"
     id="path526" />
  <path
     d="m 14.88742,5.9555 h 0.15894 v 0.136125 h -0.15894 z"
     style="fill:#25333c;stroke-width:0.147091"
     id="path528" />
  <path
     d="m 12.8212,5.9555 h 0.15894 V 6.091625 H 12.8212 Z"
     style="fill:#25323b;stroke-width:0.147091"
     id="path530" />
  <path
     d="m 19.49668,5.819375 h 0.15894 V 5.9555 h -0.15894 z"
     style="fill:#25333c;stroke-width:0.147091"
     id="path532" />
  <path
     d="m 15.52318,5.819375 h 0.15894 V 5.9555 h -0.15894 z"
     style="fill:#1f2a31;stroke-width:0.147091"
     id="path534" />
  <path
     d="m 12.18544,5.819375 h 0.15894 V 5.9555 h -0.15894 z"
     style="fill:#202b33;stroke-width:0.147091"
     id="path536" />
  <path
     d="m 11.2318,5.819375 h 0.15894 V 5.9555 H 11.2318 Z"
     style="fill:#222e37;stroke-width:0.147091"
     id="path538" />
  <path
     d="m 20.45032,5.68325 h 0.15894 v 0.136125 h -0.15894 z"
     style="fill:#1f2931;stroke-width:0.147091"
     id="path540" />
  <path
     d="m 19.49668,5.68325 h 0.15894 v 0.136125 h -0.15894 z"
     style="fill:#232f38;stroke-width:0.147091"
     id="path542" />
  <path
     d="M 15.04636,5.68325 H 15.2053 V 5.819375 H 15.04636 Z"
     style="fill:#24313b;stroke-width:0.147091"
     id="path544" />
  <path
     d="m 11.2318,5.68325 h 0.15894 V 5.819375 H 11.2318 Z"
     style="fill:#24313a;stroke-width:0.147091"
     id="path546" />
  <path
     d="m 19.49668,5.547125 h 0.15894 V 5.68325 h -0.15894 z"
     style="fill:#1f2b32;stroke-width:0.147091"
     id="path548" />
  <path
     d="m 12.98014,5.547125 h 0.15894 V 5.68325 h -0.15894 z"
     style="fill:#24313a;stroke-width:0.147091"
     id="path550" />
  <path
     d="m 20.45032,5.411 h 0.15894 v 0.136125 h -0.15894 z"
     style="fill:#232f38;stroke-width:0.147091"
     id="path552" />
  <path
     d="m 12.34438,5.411 h 0.15894 v 0.136125 h -0.15894 z"
     style="fill:#212c35;stroke-width:0.147091"
     id="path554" />
  <path
     d="m 20.45032,5.274875 h 0.15894 V 5.411 h -0.15894 z"
     style="fill:#25333c;stroke-width:0.147091"
     id="path556" />
  <path
     d="m 19.33774,5.274875 h 0.15894 V 5.411 h -0.15894 z"
     style="fill:#233038;stroke-width:0.147091"
     id="path558" />
  <path
     d="m 12.34438,5.274875 h 0.15894 V 5.411 h -0.15894 z"
     style="fill:#1e2830;stroke-width:0.147091"
     id="path560" />
  <path
     d="m 11.39074,5.274875 h 0.15894 V 5.411 h -0.15894 z"
     style="fill:#212c34;stroke-width:0.147091"
     id="path562" />
  <path
     d="m 20.29138,5.13875 h 0.15894 v 0.136125 h -0.15894 z"
     style="fill:#1f2930;stroke-width:0.147091"
     id="path564" />
  <path
     d="m 19.33774,5.13875 h 0.15894 v 0.136125 h -0.15894 z"
     style="fill:#1f2931;stroke-width:0.147091"
     id="path566" />
  <path
     d="m 13.13908,5.13875 h 0.15894 v 0.136125 h -0.15894 z"
     style="fill:#25333c;stroke-width:0.147091"
     id="path568" />
  <path
     d="m 12.50332,5.13875 h 0.15894 v 0.136125 h -0.15894 z"
     style="fill:#243039;stroke-width:0.147091"
     id="path570" />
  <path
     d="m 11.39074,5.13875 h 0.15894 v 0.136125 h -0.15894 z"
     style="fill:#243139;stroke-width:0.147091"
     id="path572" />
  <path
     d="m 20.29138,5.002625 h 0.15894 V 5.13875 h -0.15894 z"
     style="fill:#222e36;stroke-width:0.147091"
     id="path574" />
  <path
     d="m 19.1788,5.002625 h 0.15894 V 5.13875 H 19.1788 Z"
     style="fill:#24313a;stroke-width:0.147091"
     id="path576" />
  <path
     d="m 13.29802,5.002625 h 0.15894 V 5.13875 h -0.15894 z"
     style="fill:#24303a;stroke-width:0.147091"
     id="path578" />
  <path
     d="m 12.50332,5.002625 h 0.15894 V 5.13875 h -0.15894 z"
     style="fill:#1f2a31;stroke-width:0.147091"
     id="path580" />
  <path
     d="m 19.1788,4.8665 h 0.15894 V 5.002625 H 19.1788 Z"
     style="fill:#1f2a31;stroke-width:0.147091"
     id="path582" />
  <path
     d="M 12.66226,4.8665 H 12.8212 V 5.002625 H 12.66226 Z"
     style="fill:#24303a;stroke-width:0.147091"
     id="path584" />
  <path
     d="m 11.54968,4.8665 h 0.15894 v 0.136125 h -0.15894 z"
     style="fill:#212c35;stroke-width:0.147091"
     id="path586" />
  <path
     d="m 20.13244,4.730375 h 0.15894 V 4.8665 h -0.15894 z"
     style="fill:#202b33;stroke-width:0.147091"
     id="path588" />
  <path
     d="M 19.01986,4.730375 H 19.1788 V 4.8665 h -0.15894 z"
     style="fill:#233038;stroke-width:0.147091"
     id="path590" />
  <path
     d="M 12.66226,4.730375 H 12.8212 V 4.8665 h -0.15894 z"
     style="fill:#1e2930;stroke-width:0.147091"
     id="path592" />
  <path
     d="m 11.54968,4.730375 h 0.15894 V 4.8665 h -0.15894 z"
     style="fill:#26323c;stroke-width:0.147091"
     id="path594" />
  <path
     d="m 20.13244,4.59425 h 0.15894 v 0.136125 h -0.15894 z"
     style="fill:#24323b;stroke-width:0.147091"
     id="path596" />
  <path
     d="m 12.8212,4.59425 h 0.15894 V 4.730375 H 12.8212 Z"
     style="fill:#212d35;stroke-width:0.147091"
     id="path598" />
  <path
     d="m 11.70862,4.59425 h 0.15894 v 0.136125 h -0.15894 z"
     style="fill:#202b33;stroke-width:0.147091"
     id="path600" />
  <path
     d="m 19.9735,4.458125 h 0.15894 V 4.59425 H 19.9735 Z"
     style="fill:#1f2b32;stroke-width:0.147091"
     id="path602" />
  <path
     d="m 18.86092,4.458125 h 0.15894 V 4.59425 h -0.15894 z"
     style="fill:#212b33;stroke-width:0.147091"
     id="path604" />
  <path
     d="m 12.98014,4.458125 h 0.15894 V 4.59425 h -0.15894 z"
     style="fill:#25323b;stroke-width:0.147091"
     id="path606" />
  <path
     d="m 11.70862,4.458125 h 0.15894 V 4.59425 h -0.15894 z"
     style="fill:#25323c;stroke-width:0.147091"
     id="path608" />
  <path
     d="m 19.9735,4.322 h 0.15894 V 4.458125 H 19.9735 Z"
     style="fill:#25323c;stroke-width:0.147091"
     id="path610" />
  <path
     d="m 18.70198,4.322 h 0.15894 v 0.136125 h -0.15894 z"
     style="fill:#222f37;stroke-width:0.147091"
     id="path612" />
  <path
     d="m 12.98014,4.322 h 0.15894 v 0.136125 h -0.15894 z"
     style="fill:#1e2830;stroke-width:0.147091"
     id="path614" />
  <path
     d="M 11.86756,4.322 H 12.0265 V 4.458125 H 11.86756 Z"
     style="fill:#212c34;stroke-width:0.147091"
     id="path616" />
  <path
     d="M 19.81456,4.185875 H 19.9735 V 4.322 h -0.15894 z"
     style="fill:#222e35;stroke-width:0.147091"
     id="path618" />
  <path
     d="M 14.25166,4.185875 H 14.4106 V 4.322 h -0.15894 z"
     style="fill:#24303a;stroke-width:0.147091"
     id="path620" />
  <path
     d="m 12.0265,4.185875 h 0.15894 V 4.322 H 12.0265 Z"
     style="fill:#1e282f;stroke-width:0.147091"
     id="path622" />
  <path
     d="m 19.65562,4.04975 h 0.15894 v 0.136125 h -0.15894 z"
     style="fill:#1f2931;stroke-width:0.147091"
     id="path624" />
  <path
     d="m 14.4106,4.04975 h 0.15894 V 4.185875 H 14.4106 Z"
     style="fill:#25333c;stroke-width:0.147091"
     id="path626" />
  <path
     d="m 12.0265,4.04975 h 0.15894 V 4.185875 H 12.0265 Z"
     style="fill:#24303a;stroke-width:0.147091"
     id="path628" />
  <path
     d="M 18.22516,3.913625 H 18.3841 V 4.04975 h -0.15894 z"
     style="fill:#212d36;stroke-width:0.147091"
     id="path630" />
  <path
     d="m 14.88742,3.913625 h 0.15894 V 4.04975 h -0.15894 z"
     style="fill:#24313a;stroke-width:0.147091"
     id="path632" />
  <path
     d="m 13.6159,3.913625 h 0.15894 V 4.04975 H 13.6159 Z"
     style="fill:#26323b;stroke-width:0.147091"
     id="path634" />
  <path
     d="M 13.45696,3.913625 H 13.6159 V 4.04975 h -0.15894 z"
     style="fill:#1e2830;stroke-width:0.147091"
     id="path636" />
  <path
     d="m 12.18544,3.913625 h 0.15894 V 4.04975 h -0.15894 z"
     style="fill:#222d35;stroke-width:0.147091"
     id="path638" />
  <path
     d="m 19.49668,3.7775 h 0.15894 v 0.136125 h -0.15894 z"
     style="fill:#243139;stroke-width:0.147091"
     id="path640" />
  <path
     d="m 18.06622,3.7775 h 0.15894 v 0.136125 h -0.15894 z"
     style="fill:#1f2a32;stroke-width:0.147091"
     id="path642" />
  <path
     d="m 13.77484,3.7775 h 0.15894 v 0.136125 h -0.15894 z"
     style="fill:#222e37;stroke-width:0.147091"
     id="path644" />
  <path
     d="m 12.34438,3.7775 h 0.15894 v 0.136125 h -0.15894 z"
     style="fill:#202a32;stroke-width:0.147091"
     id="path646" />
  <path
     d="m 17.74834,3.641375 h 0.15894 V 3.7775 h -0.15894 z"
     style="fill:#212e36;stroke-width:0.147091"
     id="path648" />
  <path
     d="m 16.31788,3.641375 h 0.15894 V 3.7775 h -0.15894 z"
     style="fill:#1f2b32;stroke-width:0.147091"
     id="path650" />
  <path
     d="m 15.68212,3.641375 h 0.15894 V 3.7775 h -0.15894 z"
     style="fill:#1d272d;stroke-width:0.147091"
     id="path652" />
  <path
     d="m 15.52318,3.641375 h 0.15894 V 3.7775 h -0.15894 z"
     style="fill:#232e37;stroke-width:0.147091"
     id="path654" />
  <path
     d="m 14.09272,3.641375 h 0.15894 V 3.7775 h -0.15894 z"
     style="fill:#25313a;stroke-width:0.147091"
     id="path656" />
  <path
     d="m 13.93378,3.641375 h 0.15894 V 3.7775 h -0.15894 z"
     style="fill:#1e2931;stroke-width:0.147091"
     id="path658" />
  <path
     d="M 17.43046,3.50525 H 17.5894 V 3.641375 H 17.43046 Z"
     style="fill:#222e36;stroke-width:0.147091"
     id="path660" />
  <path
     d="m 14.4106,3.50525 h 0.15894 V 3.641375 H 14.4106 Z"
     style="fill:#24313a;stroke-width:0.147091"
     id="path662" />
  <path
     d="M 14.25166,3.50525 H 14.4106 V 3.641375 H 14.25166 Z"
     style="fill:#202b32;stroke-width:0.147091"
     id="path664" />
  <path
     d="m 17.11258,3.369125 h 0.15894 V 3.50525 h -0.15894 z"
     style="fill:#202c33;stroke-width:0.147091"
     id="path666" />
  <path
     d="m 16.95364,3.369125 h 0.15894 V 3.50525 h -0.15894 z"
     style="fill:#24313b;stroke-width:0.147091"
     id="path668" />
  <path
     d="m 14.72848,3.369125 h 0.15894 V 3.50525 h -0.15894 z"
     style="fill:#222e36;stroke-width:0.147091"
     id="path670" />
  <path
     d="m 14.56954,3.369125 h 0.15894 V 3.50525 h -0.15894 z"
     style="fill:#1f2931;stroke-width:0.147091"
     id="path672" />
  <path
     d="m 16.47682,3.233 h 0.15894 v 0.136125 h -0.15894 z"
     style="fill:#222e37;stroke-width:0.147091"
     id="path674" />
  <path
     d="m 16.31788,3.233 h 0.15894 v 0.136125 h -0.15894 z"
     style="fill:#24303a;stroke-width:0.147091"
     id="path676" />
  <path
     d="m 16.15894,3.233 h 0.15894 v 0.136125 h -0.15894 z"
     style="fill:#25323c;stroke-width:0.147091"
     id="path678" />
  <path
     d="m 15.36424,3.233 h 0.15894 v 0.136125 h -0.15894 z"
     style="fill:#242f38;stroke-width:0.147091"
     id="path680" />
  <path
     d="M 15.04636,3.233 H 15.2053 V 3.369125 H 15.04636 Z"
     style="fill:#1f2a31;stroke-width:0.147091"
     id="path682" />
  <path
     d="m 14.72848,3.233 h 0.15894 v 0.136125 h -0.15894 z"
     style="fill:#1d272c;stroke-width:0.147091"
     id="path684" />
  <path
     d="m 12.98014,3.233 h 0.15894 v 0.136125 h -0.15894 z"
     style="fill:#212d34;stroke-width:0.147091"
     id="path686" />
  <path
     d="m 18.54304,3.096875 h 0.15894 V 3.233 h -0.15894 z"
     style="fill:#202b33;stroke-width:0.147091"
     id="path688" />
  <path
     d="m 13.29802,3.096875 h 0.15894 V 3.233 h -0.15894 z"
     style="fill:#1e282f;stroke-width:0.147091"
     id="path690" />
  <path
     d="m 13.13908,3.096875 h 0.15894 V 3.233 h -0.15894 z"
     style="fill:#233039;stroke-width:0.147091"
     id="path692" />
  <path
     d="m 18.3841,2.96075 h 0.15894 V 3.096875 H 18.3841 Z"
     style="fill:#232f38;stroke-width:0.147091"
     id="path694" />
  <path
     d="M 13.45696,2.96075 H 13.6159 V 3.096875 H 13.45696 Z"
     style="fill:#202b33;stroke-width:0.147091"
     id="path696" />
  <path
     d="m 18.06622,2.824625 h 0.15894 V 2.96075 h -0.15894 z"
     style="fill:#212d35;stroke-width:0.147091"
     id="path698" />
  <path
     d="m 13.77484,2.824625 h 0.15894 V 2.96075 h -0.15894 z"
     style="fill:#202a31;stroke-width:0.147091"
     id="path700" />
  <path
     d="m 13.6159,2.824625 h 0.15894 V 2.96075 H 13.6159 Z"
     style="fill:#25313a;stroke-width:0.147091"
     id="path702" />
  <path
     d="m 17.74834,2.6885 h 0.15894 v 0.136125 h -0.15894 z"
     style="fill:#222e36;stroke-width:0.147091"
     id="path704" />
  <path
     d="m 17.5894,2.6885 h 0.15894 V 2.824625 H 17.5894 Z"
     style="fill:#1e2830;stroke-width:0.147091"
     id="path706" />
  <path
     d="m 14.09272,2.6885 h 0.15894 v 0.136125 h -0.15894 z"
     style="fill:#202b33;stroke-width:0.147091"
     id="path708" />
  <path
     d="m 13.93378,2.6885 h 0.15894 v 0.136125 h -0.15894 z"
     style="fill:#24323a;stroke-width:0.147091"
     id="path710" />
  <path
     d="m 17.27152,2.552375 h 0.15894 V 2.6885 h -0.15894 z"
     style="fill:#212d34;stroke-width:0.147091"
     id="path712" />
  <path
     d="m 17.11258,2.552375 h 0.15894 V 2.6885 h -0.15894 z"
     style="fill:#1e2930;stroke-width:0.147091"
     id="path714" />
  <path
     d="m 14.56954,2.552375 h 0.15894 V 2.6885 h -0.15894 z"
     style="fill:#202a32;stroke-width:0.147091"
     id="path716" />
  <path
     d="m 14.4106,2.552375 h 0.15894 V 2.6885 H 14.4106 Z"
     style="fill:#232f37;stroke-width:0.147091"
     id="path718" />
  <path
     d="M 16.63576,2.41625 H 16.7947 V 2.552375 H 16.63576 Z"
     style="fill:#222e36;stroke-width:0.147091"
     id="path720" />
  <path
     d="m 16.47682,2.41625 h 0.15894 v 0.136125 h -0.15894 z"
     style="fill:#202c33;stroke-width:0.147091"
     id="path722" />
  <path
     d="m 16.31788,2.41625 h 0.15894 v 0.136125 h -0.15894 z"
     style="fill:#1f2a31;stroke-width:0.147091"
     id="path724" />
  <path
     d="m 16.15894,2.41625 h 0.15894 v 0.136125 h -0.15894 z"
     style="fill:#1f2a30;stroke-width:0.147091"
     id="path726" />
  <path
     d="m 15.36424,2.41625 h 0.15894 v 0.136125 h -0.15894 z"
     style="fill:#202b33;stroke-width:0.147091"
     id="path728" />
  <path
     d="M 15.04636,2.41625 H 15.2053 V 2.552375 H 15.04636 Z"
     style="fill:#232f38;stroke-width:0.147091"
     id="path730" />
  <path
     d="m 14.88742,2.41625 h 0.15894 v 0.136125 h -0.15894 z"
     style="fill:#25323b;stroke-width:0.147091"
     id="path732" />
  <path
     d="M 31.73506,2.007875 H 31.894 V 2.144 h -0.15894 z"
     style="fill:#5e5b30;stroke-width:0.147091"
     id="path734" />
  <path
     d="M 0.42388,2.007875 H 0.58282 V 2.144 H 0.42388 Z"
     style="fill:#243038;stroke-width:0.147091"
     id="path736" />
  <path
     d="M 0.106,2.007875 H 0.26494 V 2.144 H 0.106 Z"
     style="fill:#213037;stroke-width:0.147091"
     id="path738" />
  <path
     d="M 31.73506,1.87175 H 31.894 v 0.136125 h -0.15894 z"
     style="fill:#475555;stroke-width:0.147091"
     id="path740" />
  <path
     d="M 0.106,1.87175 H 0.26494 V 2.007875 H 0.106 Z"
     style="fill:#24373d;stroke-width:0.147091"
     id="path742" />
  <path
     d="m 31.41718,1.735625 h 0.15894 V 1.87175 h -0.15894 z"
     style="fill:#202b31;stroke-width:0.147091"
     id="path744" />
  <path
     d="M 0.42388,1.735625 H 0.58282 V 1.87175 H 0.42388 Z"
     style="fill:#202b30;stroke-width:0.147091"
     id="path746" />
  <path
     d="M 31.73506,1.5995 H 31.894 v 0.136125 h -0.15894 z"
     style="fill:#4b5e71;stroke-width:0.147091"
     id="path748" />
  <path
     d="m 31.25824,1.5995 h 0.15894 v 0.136125 h -0.15894 z"
     style="fill:#222e35;stroke-width:0.147091"
     id="path750" />
  <path
     d="M 0.58282,1.5995 H 0.74176 V 1.735625 H 0.58282 Z"
     style="fill:#222e34;stroke-width:0.147091"
     id="path752" />
  <path
     d="M 0.106,1.5995 H 0.26494 V 1.735625 H 0.106 Z"
     style="fill:#2c4242;stroke-width:0.147091"
     id="path754" />
  <path
     d="m 31.57612,1.463375 h 0.15894 V 1.5995 h -0.15894 z"
     style="fill:#3f5360;stroke-width:0.147091"
     id="path756" />
  <path
     d="m 31.0993,1.463375 h 0.15894 V 1.5995 H 31.0993 Z"
     style="fill:#243138;stroke-width:0.147091"
     id="path758" />
  <path
     d="M 0.74176,1.463375 H 0.9007 V 1.5995 H 0.74176 Z"
     style="fill:#243037;stroke-width:0.147091"
     id="path760" />
  <path
     d="M 0.26494,1.463375 H 0.42388 V 1.5995 H 0.26494 Z"
     style="fill:#202f35;stroke-width:0.147091"
     id="path762" />
  <path
     d="m 31.41718,1.32725 h 0.15894 v 0.136125 h -0.15894 z"
     style="fill:#2e3d48;stroke-width:0.147091"
     id="path764" />
  <path
     d="M 30.94036,1.32725 H 31.0993 V 1.463375 H 30.94036 Z"
     style="fill:#212c32;stroke-width:0.147091"
     id="path766" />
  <path
     d="M 0.9007,1.32725 H 1.05964 V 1.463375 H 0.9007 Z"
     style="fill:#212c32;stroke-width:0.147091"
     id="path768" />
  <path
     d="m 31.25824,1.191125 h 0.15894 V 1.32725 h -0.15894 z"
     style="fill:#223038;stroke-width:0.147091"
     id="path770" />
  <path
     d="m 31.0993,1.055 h 0.15894 V 1.191125 H 31.0993 Z"
     style="fill:#233239;stroke-width:0.147091"
     id="path772" />
  <path
     d="M 30.94036,1.055 H 31.0993 V 1.191125 H 30.94036 Z"
     style="fill:#1d2a31;stroke-width:0.147091"
     id="path774" />
  <path
     d="M 0.9007,1.055 H 1.05964 V 1.191125 H 0.9007 Z"
     style="fill:#1b2429;stroke-width:0.147091"
     id="path776" />
</svg>
