<?xml version="1.0" encoding="UTF-8" standalone="no"?>
<svg
   xmlns:dc="http://purl.org/dc/elements/1.1/"
   xmlns:cc="http://creativecommons.org/ns#"
   xmlns:rdf="http://www.w3.org/1999/02/22-rdf-syntax-ns#"
   xmlns:svg="http://www.w3.org/2000/svg"
   xmlns="http://www.w3.org/2000/svg"
   id="svg"
   version="1.1"
   style="display:block"
   viewBox="0 0 32 13"
   width="32"
   height="13">
  <metadata
     id="metadata355">
    <rdf:RDF>
      <cc:Work
         rdf:about="">
        <dc:format>image/svg+xml</dc:format>
        <dc:type
           rdf:resource="http://purl.org/dc/dcmitype/StillImage" />
        <dc:title></dc:title>
      </cc:Work>
    </rdf:RDF>
  </metadata>
  <defs
     id="defs353" />
  <path
     d="m 0.74176,1.055 h 30.51648 v 0.136125 h 0.15894 V 1.32725 h 0.15894 v 0.136125 h 0.15894 V 1.5995 H 31.894 v 9.664875 h -0.15894 v 0.27225 h -0.15894 v 0.136125 h -0.15894 v 0.136125 H 31.25824 V 11.945 H 0.74176 V 11.808875 H 0.58282 V 11.67275 H 0.42388 V 11.536625 H 0.26494 v -0.27225 H 0.106 V 1.5995 H 0.26494 V 1.463375 H 0.42388 V 1.32725 H 0.58282 V 1.191125 h 0.15894 z"
     style="fill:#27343c;stroke-width:0.147091"
     id="path4" />
  <path
     d="m 0.74176,1.055 h 30.51648 v 0.136125 h 0.15894 V 1.32725 h 0.15894 v 0.408375 h 0.15894 V 11.12825 H 31.41718 V 1.735625 H 31.25824 V 1.463375 H 30.94036 V 1.32725 H 1.05964 V 1.463375 H 0.74176 V 1.5995 H 0.58282 V 1.735625 H 0.42388 V 11.12825 H 0.58282 V 11.4005 H 0.42388 V 11.264375 H 0.106 V 1.5995 H 0.26494 V 1.463375 H 0.42388 V 1.32725 H 0.58282 V 1.191125 H 0.74176 Z M 0.58282,11.4005 h 0.15894 v 0.136125 H 0.58282 Z m 0.15894,0.136125 H 1.05964 V 11.67275 H 30.94036 V 11.945 H 0.9007 V 11.67275 H 0.74176 Z"
     style="fill:#1d272c;stroke-width:0.147091"
     id="path6" />
  <path
     d="m 14.4106,2.824625 h 3.01986 V 2.96075 h 0.31788 v 0.136125 h 0.15894 V 3.233 h 0.15894 v 0.136125 h 0.15894 v 2.7225 H 18.06622 V 6.22775 H 17.90728 V 6.363875 H 17.5894 V 6.5 H 17.43046 V 6.636125 H 17.11258 V 6.77225 H 16.7947 V 6.908375 H 16.47682 V 7.0445 H 16.31788 V 7.725125 H 14.88742 V 6.5 h 0.15894 V 6.363875 H 15.2053 V 6.22775 h 0.15894 V 6.091625 h 0.15894 V 5.9555 h 0.31788 V 5.819375 h 0.31788 V 5.68325 h 0.31788 V 5.547125 H 16.7947 V 5.411 h 0.15894 V 4.04975 H 16.7947 V 3.913625 H 15.2053 V 4.04975 H 15.04636 V 4.8665 H 13.6159 V 3.50525 h 0.15894 V 3.233 h 0.15894 V 3.096875 h 0.15894 V 2.96075 h 0.31788 z"
     style="fill:#1c262b;stroke-width:0.147091"
     id="path8" />
  <path
     d="m 0.106,1.5995 h 0.15894 v 9.52875 H 0.58282 V 11.4005 H 0.42388 V 11.264375 H 0.106 Z m 0.47682,9.801 h 0.15894 v 0.136125 H 0.58282 Z m 0.15894,0.136125 H 1.05964 V 11.67275 H 30.94036 V 11.945 H 0.9007 V 11.67275 H 0.74176 Z"
     style="fill:#1d272c;stroke-width:0.147091"
     id="path10" />
  <path
     d="m 13.45696,11.67275 h 17.4834 V 11.945 h -17.4834 z"
     style="fill:#1d272c;stroke-width:0.147091"
     id="path12" />
  <path
     d="m 31.0993,1.191125 h 0.31788 V 1.32725 h 0.15894 v 0.408375 h 0.15894 V 11.12825 H 31.41718 V 1.735625 H 31.25824 V 1.463375 H 30.94036 V 1.32725 h 0.15894 z"
     style="fill:#212d33;stroke-width:0.147091"
     id="path14" />
  <path
     d="m 14.88742,8.40575 h 1.5894 v 1.497375 h -1.5894 z"
     style="fill:#1c262b;stroke-width:0.147091"
     id="path16" />
  <path
     d="M 0.74176,1.055 H 1.21858 V 1.191125 H 1.05964 v 0.27225 H 0.74176 V 1.5995 H 0.58282 V 1.735625 H 0.42388 V 11.12825 H 0.26494 V 1.463375 H 0.42388 V 1.32725 H 0.58282 V 1.191125 h 0.15894 z"
     style="fill:#1d272c;stroke-width:0.147091"
     id="path18" />
  <path
     d="m 31.57612,1.463375 h 0.15894 V 1.5995 H 31.894 v 9.664875 h -0.15894 v -9.52875 h -0.15894 z"
     style="fill:#504e2d;stroke-width:0.147091"
     id="path20" />
  <path
     d="m 0.106,1.5995 h 0.15894 v 9.664875 H 0.106 Z"
     style="fill:#213038;stroke-width:0.147091"
     id="path22" />
  <path
     d="M 0.42388,1.735625 H 0.58282 V 11.12825 H 0.42388 Z"
     style="fill:#243037;stroke-width:0.147091"
     id="path24" />
  <path
     d="m 31.57612,1.87175 h 0.15894 v 9.2565 h -0.15894 z"
     style="fill:#1d272c;stroke-width:0.147091"
     id="path26" />
  <path
     d="m 15.04636,11.808875 h 6.83442 V 11.945 h -6.83442 z"
     style="fill:#1e292e;stroke-width:0.147091"
     id="path28" />
  <path
     d="m 9.00664,11.808875 h 4.45032 V 11.945 H 9.00664 Z"
     style="fill:#1e292e;stroke-width:0.147091"
     id="path30" />
  <path
     d="m 14.4106,2.824625 h 3.01986 V 2.96075 H 14.4106 Z"
     style="fill:#1e282e;stroke-width:0.147091"
     id="path32" />
  <path
     d="m 31.41718,11.12825 h 0.31788 v 0.408375 h -0.15894 v 0.136125 h -0.15894 v 0.136125 H 31.25824 V 11.945 H 30.94036 V 11.536625 H 31.0993 V 11.4005 h 0.15894 v -0.136125 h 0.15894 z"
     style="fill:#1d272c;stroke-width:0.147091"
     id="path34" />
  <path
     d="m 14.88742,6.5 h 0.15894 v 1.089 h 1.27152 v 0.136125 h -1.43046 z"
     style="fill:#222e34;stroke-width:0.147091"
     id="path36" />
  <path
     d="m 18.22516,3.641375 h 0.15894 v 2.178 h -0.15894 z"
     style="fill:#222e35;stroke-width:0.147091"
     id="path38" />
  <path
     d="m 15.04636,11.808875 h 2.22516 V 11.945 h -2.22516 z"
     style="fill:#1e282e;stroke-width:0.147091"
     id="path40" />
  <path
     d="m 14.88742,4.185875 h 0.15894 V 4.8665 H 13.6159 V 4.730375 h 1.27152 z"
     style="fill:#1f2a30;stroke-width:0.147091"
     id="path42" />
  <path
     d="m 29.03308,11.808875 h 1.90728 V 11.945 h -1.90728 z"
     style="fill:#1e292e;stroke-width:0.147091"
     id="path44" />
  <path
     d="M 0.26494,11.12825 H 0.58282 V 11.4005 H 0.42388 V 11.264375 H 0.26494 Z m 0.31788,0.27225 h 0.15894 v 0.136125 H 0.58282 Z m 0.15894,0.136125 H 1.05964 V 11.67275 H 1.37752 V 11.945 H 0.9007 V 11.67275 H 0.74176 Z"
     style="fill:#1d272c;stroke-width:0.147091"
     id="path46" />
  <path
     d="m 14.88742,8.40575 h 1.5894 v 0.136125 h -1.43046 v 0.27225 h -0.15894 z"
     style="fill:#1e292e;stroke-width:0.147091"
     id="path48" />
  <path
     d="m 31.0993,1.191125 h 0.31788 V 1.32725 h 0.15894 v 0.408375 h 0.15894 V 1.87175 H 31.41718 V 1.735625 H 31.25824 V 1.463375 H 30.94036 V 1.32725 h 0.15894 z"
     style="fill:#1d272c;stroke-width:0.147091"
     id="path50" />
  <path
     d="m 16.47682,8.40575 h 0.15894 v 1.497375 h -0.15894 z"
     style="fill:#25323a;stroke-width:0.147091"
     id="path52" />
  <path
     d="M 16.63576,3.913625 H 16.7947 V 4.04975 H 16.63576 Z M 16.7947,4.04975 h 0.15894 V 5.411 H 16.7947 Z"
     style="fill:#222e35;stroke-width:0.147091"
     id="path54" />
  <path
     d="M 0.26494,11.264375 H 0.42388 V 11.4005 h 0.15894 v 0.136125 H 0.74176 V 11.67275 H 0.9007 V 11.945 H 0.74176 V 11.808875 H 0.58282 V 11.67275 H 0.42388 V 11.536625 H 0.26494 Z m 0.31788,0 H 0.74176 V 11.4005 H 0.58282 Z M 0.74176,11.4005 H 0.9007 v 0.136125 H 0.74176 Z"
     style="fill:#1f2b31;stroke-width:0.147091"
     id="path56" />
  <path
     d="m 14.88742,9.767 h 1.5894 v 0.136125 h -1.5894 z"
     style="fill:#202a30;stroke-width:0.147091"
     id="path58" />
  <path
     d="m 15.2053,3.913625 h 1.43046 V 4.04975 H 15.2053 Z"
     style="fill:#243138;stroke-width:0.147091"
     id="path60" />
  <path
     d="m 14.88742,6.5 h 0.15894 v 1.089 h -0.15894 z"
     style="fill:#212c32;stroke-width:0.147091"
     id="path62" />
  <path
     d="m 13.45696,3.7775 h 0.15894 v 1.089 h -0.15894 z"
     style="fill:#25323a;stroke-width:0.147091"
     id="path64" />
  <path
     d="m 31.25824,11.264375 h 0.15894 V 11.4005 H 31.25824 Z M 31.0993,11.4005 h 0.15894 v 0.136125 H 31.0993 Z m 0.31788,0 h 0.31788 v 0.136125 h -0.15894 v 0.136125 h -0.15894 v 0.136125 h -0.15894 v -0.27225 h 0.15894 z"
     style="fill:#212c32;stroke-width:0.147091"
     id="path66" />
  <path
     d="M 14.09272,2.96075 H 14.4106 V 3.096875 H 14.25166 V 3.233 H 14.09272 V 3.369125 H 13.93378 V 3.50525 H 13.77484 V 3.233 h 0.15894 V 3.096875 h 0.15894 z"
     style="fill:#1c262b;stroke-width:0.147091"
     id="path68" />
  <path
     d="M 1.05964,1.32725 H 1.21858 V 1.463375 H 1.05964 Z M 0.74176,1.463375 H 1.05964 V 1.5995 H 0.9007 V 1.735625 H 0.74176 V 1.87175 H 0.58282 V 1.5995 h 0.15894 z"
     style="fill:#27343b;stroke-width:0.147091"
     id="path70" />
  <path
     d="m 16.47682,6.908375 h 0.15894 V 7.0445 H 16.47682 Z M 16.31788,7.0445 h 0.15894 V 7.589 h -0.15894 z"
     style="fill:#253138;stroke-width:0.147091"
     id="path72" />
  <path
     d="m 31.57612,1.463375 h 0.15894 V 1.5995 H 31.894 v 0.408375 h -0.15894 v -0.27225 h -0.15894 z"
     style="fill:#3d5062;stroke-width:0.147091"
     id="path74" />
  <path
     d="m 14.88742,4.185875 h 0.15894 v 0.5445 h -0.15894 z"
     style="fill:#1f2a2f;stroke-width:0.147091"
     id="path76" />
  <path
     d="M 0.74176,1.055 H 1.05964 V 1.191125 H 0.74176 Z M 0.58282,1.191125 H 0.74176 V 1.32725 H 0.58282 Z M 0.42388,1.32725 H 0.58282 V 1.463375 H 0.42388 Z"
     style="fill:#1a2229;stroke-width:0.147091"
     id="path78" />
  <path
     d="M 0.58282,11.67275 H 0.9007 V 11.945 H 0.74176 V 11.808875 H 0.58282 Z"
     style="fill:#283641;stroke-width:0.147091"
     id="path80" />
  <path
     d="m 0.106,10.856 h 0.15894 v 0.408375 H 0.106 Z"
     style="fill:#293c45;stroke-width:0.147091"
     id="path82" />
  <path
     d="M 0.106,1.5995 H 0.26494 V 2.007875 H 0.106 Z"
     style="fill:#263940;stroke-width:0.147091"
     id="path84" />
  <path
     d="M 0.74176,1.191125 H 0.9007 V 1.32725 H 0.74176 Z M 0.58282,1.32725 H 0.74176 V 1.463375 H 0.58282 Z M 0.42388,1.463375 H 0.58282 V 1.5995 H 0.42388 Z"
     style="fill:#1c262b;stroke-width:0.147091"
     id="path86" />
  <path
     d="m 30.94036,11.808875 h 0.31788 V 11.945 h -0.31788 z"
     style="fill:#546371;stroke-width:0.147091"
     id="path88" />
  <path
     d="m 30.62248,11.808875 h 0.31788 V 11.945 h -0.31788 z"
     style="fill:#2d3c45;stroke-width:0.147091"
     id="path90" />
  <path
     d="m 29.03308,11.808875 h 0.31788 V 11.945 h -0.31788 z"
     style="fill:#1e292e;stroke-width:0.147091"
     id="path92" />
  <path
     d="M 0.9007,11.808875 H 1.21858 V 11.945 H 0.9007 Z"
     style="fill:#232c2e;stroke-width:0.147091"
     id="path94" />
  <path
     d="m 31.41718,11.536625 h 0.15894 v 0.136125 h -0.15894 z m -0.15894,0.136125 h 0.15894 v 0.136125 h -0.15894 z"
     style="fill:#445866;stroke-width:0.147091"
     id="path96" />
  <path
     d="m 0.26494,11.264375 h 0.15894 v 0.27225 H 0.26494 Z"
     style="fill:#33454e;stroke-width:0.147091"
     id="path98" />
  <path
     d="M 31.73506,10.992125 H 31.894 v 0.27225 h -0.15894 z"
     style="fill:#445766;stroke-width:0.147091"
     id="path100" />
  <path
     d="m 14.88742,8.541875 h 0.15894 v 0.27225 h -0.15894 z"
     style="fill:#1e282d;stroke-width:0.147091"
     id="path102" />
  <path
     d="M 14.88742,7.589 H 15.2053 V 7.725125 H 14.88742 Z"
     style="fill:#222d34;stroke-width:0.147091"
     id="path104" />
  <path
     d="M 16.63576,6.908375 H 16.7947 V 7.0445 H 16.63576 Z M 16.47682,7.0445 h 0.15894 v 0.136125 h -0.15894 z"
     style="fill:#27343c;stroke-width:0.147091"
     id="path106" />
  <path
     d="m 16.47682,6.908375 h 0.15894 V 7.0445 H 16.47682 Z M 16.31788,7.0445 h 0.15894 v 0.136125 h -0.15894 z"
     style="fill:#222d34;stroke-width:0.147091"
     id="path108" />
  <path
     d="m 14.88742,6.5 h 0.15894 v 0.27225 h -0.15894 z"
     style="fill:#212d33;stroke-width:0.147091"
     id="path110" />
  <path
     d="m 18.06622,6.091625 h 0.15894 V 6.22775 H 18.06622 Z M 17.90728,6.22775 h 0.15894 v 0.136125 h -0.15894 z"
     style="fill:#25323a;stroke-width:0.147091"
     id="path112" />
  <path
     d="m 15.2053,6.091625 h 0.15894 V 6.22775 H 15.2053 Z M 15.04636,6.22775 h 0.15894 v 0.136125 h -0.15894 z"
     style="fill:#243037;stroke-width:0.147091"
     id="path114" />
  <path
     d="M 16.63576,3.913625 H 16.7947 V 4.04975 H 16.63576 Z M 16.7947,4.04975 h 0.15894 V 4.185875 H 16.7947 Z"
     style="fill:#212c32;stroke-width:0.147091"
     id="path116" />
  <path
     d="m 15.2053,3.913625 h 0.31788 V 4.04975 H 15.2053 Z"
     style="fill:#243138;stroke-width:0.147091"
     id="path118" />
  <path
     d="m 18.22516,3.641375 h 0.15894 v 0.27225 h -0.15894 z"
     style="fill:#222e35;stroke-width:0.147091"
     id="path120" />
  <path
     d="m 13.6159,3.50525 h 0.15894 V 3.7775 H 13.6159 Z"
     style="fill:#1e282e;stroke-width:0.147091"
     id="path122" />
  <path
     d="m 17.74834,2.96075 h 0.15894 v 0.136125 h -0.15894 z m 0.15894,0.136125 h 0.15894 V 3.233 h -0.15894 z"
     style="fill:#253138;stroke-width:0.147091"
     id="path124" />
  <path
     d="m 14.4106,2.824625 h 0.31788 V 2.96075 H 14.4106 Z"
     style="fill:#1f292f;stroke-width:0.147091"
     id="path126" />
  <path
     d="M 31.73506,2.007875 H 31.894 v 0.27225 h -0.15894 z"
     style="fill:#4e4e2d;stroke-width:0.147091"
     id="path128" />
  <path
     d="m 0.106,2.007875 h 0.15894 v 0.27225 H 0.106 Z"
     style="fill:#213038;stroke-width:0.147091"
     id="path130" />
  <path
     d="m 0.42388,1.735625 h 0.15894 v 0.27225 H 0.42388 Z"
     style="fill:#222d34;stroke-width:0.147091"
     id="path132" />
  <path
     d="m 31.57612,1.463375 h 0.15894 v 0.27225 h -0.15894 z"
     style="fill:#253239;stroke-width:0.147091"
     id="path134" />
  <path
     d="m 0.26494,1.463375 h 0.15894 v 0.27225 H 0.26494 Z"
     style="fill:#1e2a2f;stroke-width:0.147091"
     id="path136" />
  <path
     d="M 30.94036,11.808875 H 31.0993 V 11.945 h -0.15894 z"
     style="fill:#3d4f5c;stroke-width:0.147091"
     id="path138" />
  <path
     d="m 30.62248,11.808875 h 0.15894 V 11.945 h -0.15894 z"
     style="fill:#26323a;stroke-width:0.147091"
     id="path140" />
  <path
     d="m 29.03308,11.808875 h 0.15894 V 11.945 h -0.15894 z"
     style="fill:#1e282e;stroke-width:0.147091"
     id="path142" />
  <path
     d="m 13.29802,11.808875 h 0.15894 V 11.945 h -0.15894 z"
     style="fill:#1e282e;stroke-width:0.147091"
     id="path144" />
  <path
     d="M 1.21858,11.808875 H 1.37752 V 11.945 H 1.21858 Z"
     style="fill:#202a2d;stroke-width:0.147091"
     id="path146" />
  <path
     d="M 0.9007,11.808875 H 1.05964 V 11.945 H 0.9007 Z"
     style="fill:#323832;stroke-width:0.147091"
     id="path148" />
  <path
     d="M 0.74176,11.808875 H 0.9007 V 11.945 H 0.74176 Z"
     style="fill:#3f4f5f;stroke-width:0.147091"
     id="path150" />
  <path
     d="m 31.0993,11.67275 h 0.15894 v 0.136125 H 31.0993 Z"
     style="fill:#2d3b44;stroke-width:0.147091"
     id="path152" />
  <path
     d="m 0.58282,11.67275 h 0.15894 v 0.136125 H 0.58282 Z"
     style="fill:#324858;stroke-width:0.147091"
     id="path154" />
  <path
     d="M 30.94036,11.536625 H 31.0993 V 11.67275 H 30.94036 Z"
     style="fill:#1f2a2f;stroke-width:0.147091"
     id="path156" />
  <path
     d="m 30.78142,11.536625 h 0.15894 v 0.136125 h -0.15894 z"
     style="fill:#243037;stroke-width:0.147091"
     id="path158" />
  <path
     d="m 30.62248,11.536625 h 0.15894 v 0.136125 h -0.15894 z"
     style="fill:#26323a;stroke-width:0.147091"
     id="path160" />
  <path
     d="M 1.05964,11.536625 H 1.21858 V 11.67275 H 1.05964 Z"
     style="fill:#26323a;stroke-width:0.147091"
     id="path162" />
  <path
     d="M 0.9007,11.536625 H 1.05964 V 11.67275 H 0.9007 Z"
     style="fill:#1f292f;stroke-width:0.147091"
     id="path164" />
  <path
     d="M 0.42388,11.536625 H 0.58282 V 11.67275 H 0.42388 Z"
     style="fill:#314350;stroke-width:0.147091"
     id="path166" />
  <path
     d="m 31.57612,11.4005 h 0.15894 v 0.136125 h -0.15894 z"
     style="fill:#4a5e6f;stroke-width:0.147091"
     id="path168" />
  <path
     d="m 31.57612,11.264375 h 0.15894 V 11.4005 h -0.15894 z"
     style="fill:#31404a;stroke-width:0.147091"
     id="path170" />
  <path
     d="M 0.26494,11.264375 H 0.42388 V 11.4005 H 0.26494 Z"
     style="fill:#283841;stroke-width:0.147091"
     id="path172" />
  <path
     d="m 31.41718,11.12825 h 0.15894 v 0.136125 h -0.15894 z"
     style="fill:#1e292e;stroke-width:0.147091"
     id="path174" />
  <path
     d="m 0.42388,11.12825 h 0.15894 v 0.136125 H 0.42388 Z"
     style="fill:#1e282e;stroke-width:0.147091"
     id="path176" />
  <path
     d="m 0.106,11.12825 h 0.15894 v 0.136125 H 0.106 Z"
     style="fill:#304551;stroke-width:0.147091"
     id="path178" />
  <path
     d="M 31.73506,10.992125 H 31.894 v 0.136125 h -0.15894 z"
     style="fill:#3e4f5d;stroke-width:0.147091"
     id="path180" />
  <path
     d="m 31.41718,10.992125 h 0.15894 v 0.136125 h -0.15894 z"
     style="fill:#222d33;stroke-width:0.147091"
     id="path182" />
  <path
     d="M 0.42388,10.992125 H 0.58282 V 11.12825 H 0.42388 Z"
     style="fill:#212d33;stroke-width:0.147091"
     id="path184" />
  <path
     d="M 31.73506,10.856 H 31.894 v 0.136125 h -0.15894 z"
     style="fill:#454833;stroke-width:0.147091"
     id="path186" />
  <path
     d="m 0.106,10.856 h 0.15894 v 0.136125 H 0.106 Z"
     style="fill:#263740;stroke-width:0.147091"
     id="path188" />
  <path
     d="M 31.73506,10.719875 H 31.894 V 10.856 h -0.15894 z"
     style="fill:#4d4d2a;stroke-width:0.147091"
     id="path190" />
  <path
     d="M 0.42388,10.719875 H 0.58282 V 10.856 H 0.42388 Z"
     style="fill:#243038;stroke-width:0.147091"
     id="path192" />
  <path
     d="M 0.106,10.719875 H 0.26494 V 10.856 H 0.106 Z"
     style="fill:#213039;stroke-width:0.147091"
     id="path194" />
  <path
     d="m 16.47682,9.767 h 0.15894 v 0.136125 h -0.15894 z"
     style="fill:#26323a;stroke-width:0.147091"
     id="path196" />
  <path
     d="m 16.31788,9.767 h 0.15894 v 0.136125 h -0.15894 z"
     style="fill:#202b30;stroke-width:0.147091"
     id="path198" />
  <path
     d="m 14.88742,9.767 h 0.15894 v 0.136125 h -0.15894 z"
     style="fill:#202b31;stroke-width:0.147091"
     id="path200" />
  <path
     d="m 14.88742,8.541875 h 0.15894 V 8.678 h -0.15894 z"
     style="fill:#1e272c;stroke-width:0.147091"
     id="path202" />
  <path
     d="m 16.31788,8.40575 h 0.15894 v 0.136125 h -0.15894 z"
     style="fill:#1e292f;stroke-width:0.147091"
     id="path204" />
  <path
     d="m 14.88742,8.40575 h 0.15894 v 0.136125 h -0.15894 z"
     style="fill:#1f292f;stroke-width:0.147091"
     id="path206" />
  <path
     d="m 16.31788,7.589 h 0.15894 v 0.136125 h -0.15894 z"
     style="fill:#26333a;stroke-width:0.147091"
     id="path208" />
  <path
     d="m 16.15894,7.589 h 0.15894 v 0.136125 h -0.15894 z"
     style="fill:#222d34;stroke-width:0.147091"
     id="path210" />
  <path
     d="m 14.88742,7.589 h 0.15894 v 0.136125 h -0.15894 z"
     style="fill:#243038;stroke-width:0.147091"
     id="path212" />
  <path
     d="M 15.04636,7.452875 H 15.2053 V 7.589 h -0.15894 z"
     style="fill:#1b252a;stroke-width:0.147091"
     id="path214" />
  <path
     d="m 14.88742,7.452875 h 0.15894 V 7.589 h -0.15894 z"
     style="fill:#212c31;stroke-width:0.147091"
     id="path216" />
  <path
     d="m 16.7947,6.77225 h 0.15894 V 6.908375 H 16.7947 Z"
     style="fill:#243138;stroke-width:0.147091"
     id="path218" />
  <path
     d="M 16.63576,6.77225 H 16.7947 V 6.908375 H 16.63576 Z"
     style="fill:#1e292f;stroke-width:0.147091"
     id="path220" />
  <path
     d="m 17.11258,6.636125 h 0.15894 V 6.77225 h -0.15894 z"
     style="fill:#253239;stroke-width:0.147091"
     id="path222" />
  <path
     d="m 16.95364,6.636125 h 0.15894 V 6.77225 h -0.15894 z"
     style="fill:#202b32;stroke-width:0.147091"
     id="path224" />
  <path
     d="M 17.43046,6.5 H 17.5894 V 6.636125 H 17.43046 Z"
     style="fill:#26333b;stroke-width:0.147091"
     id="path226" />
  <path
     d="m 17.27152,6.5 h 0.15894 v 0.136125 h -0.15894 z"
     style="fill:#212c32;stroke-width:0.147091"
     id="path228" />
  <path
     d="m 14.88742,6.5 h 0.15894 v 0.136125 h -0.15894 z"
     style="fill:#242f36;stroke-width:0.147091"
     id="path230" />
  <path
     d="m 17.5894,6.363875 h 0.15894 V 6.5 H 17.5894 Z"
     style="fill:#232e35;stroke-width:0.147091"
     id="path232" />
  <path
     d="M 15.04636,6.363875 H 15.2053 V 6.5 h -0.15894 z"
     style="fill:#1e282e;stroke-width:0.147091"
     id="path234" />
  <path
     d="m 17.74834,6.22775 h 0.15894 v 0.136125 h -0.15894 z"
     style="fill:#1f292f;stroke-width:0.147091"
     id="path236" />
  <path
     d="m 15.2053,6.22775 h 0.15894 V 6.363875 H 15.2053 Z"
     style="fill:#1d262b;stroke-width:0.147091"
     id="path238" />
  <path
     d="m 15.36424,6.091625 h 0.15894 V 6.22775 h -0.15894 z"
     style="fill:#1e282e;stroke-width:0.147091"
     id="path240" />
  <path
     d="m 18.06622,5.9555 h 0.15894 v 0.136125 h -0.15894 z"
     style="fill:#202b31;stroke-width:0.147091"
     id="path242" />
  <path
     d="m 15.52318,5.9555 h 0.15894 v 0.136125 h -0.15894 z"
     style="fill:#212c33;stroke-width:0.147091"
     id="path244" />
  <path
     d="M 18.22516,5.819375 H 18.3841 V 5.9555 h -0.15894 z"
     style="fill:#253239;stroke-width:0.147091"
     id="path246" />
  <path
     d="M 15.84106,5.819375 H 16 V 5.9555 h -0.15894 z"
     style="fill:#212c32;stroke-width:0.147091"
     id="path248" />
  <path
     d="m 15.68212,5.819375 h 0.15894 V 5.9555 h -0.15894 z"
     style="fill:#26323a;stroke-width:0.147091"
     id="path250" />
  <path
     d="M 18.22516,5.68325 H 18.3841 V 5.819375 H 18.22516 Z"
     style="fill:#222f36;stroke-width:0.147091"
     id="path252" />
  <path
     d="m 16.15894,5.68325 h 0.15894 v 0.136125 h -0.15894 z"
     style="fill:#202c32;stroke-width:0.147091"
     id="path254" />
  <path
     d="m 16,5.68325 h 0.15894 V 5.819375 H 16 Z"
     style="fill:#25323a;stroke-width:0.147091"
     id="path256" />
  <path
     d="m 16.47682,5.547125 h 0.15894 V 5.68325 h -0.15894 z"
     style="fill:#202b32;stroke-width:0.147091"
     id="path258" />
  <path
     d="m 16.31788,5.547125 h 0.15894 V 5.68325 h -0.15894 z"
     style="fill:#253139;stroke-width:0.147091"
     id="path260" />
  <path
     d="M 16.63576,5.411 H 16.7947 V 5.547125 H 16.63576 Z"
     style="fill:#242f37;stroke-width:0.147091"
     id="path262" />
  <path
     d="m 16.7947,5.274875 h 0.15894 V 5.411 H 16.7947 Z"
     style="fill:#212c32;stroke-width:0.147091"
     id="path264" />
  <path
     d="m 14.88742,4.730375 h 0.15894 V 4.8665 h -0.15894 z"
     style="fill:#212c32;stroke-width:0.147091"
     id="path266" />
  <path
     d="m 14.88742,4.59425 h 0.15894 v 0.136125 h -0.15894 z"
     style="fill:#1e292e;stroke-width:0.147091"
     id="path268" />
  <path
     d="m 14.72848,4.59425 h 0.15894 v 0.136125 h -0.15894 z"
     style="fill:#1c252a;stroke-width:0.147091"
     id="path270" />
  <path
     d="M 15.04636,4.04975 H 15.2053 V 4.185875 H 15.04636 Z"
     style="fill:#27333b;stroke-width:0.147091"
     id="path272" />
  <path
     d="m 15.2053,3.913625 h 0.15894 V 4.04975 H 15.2053 Z"
     style="fill:#243038;stroke-width:0.147091"
     id="path274" />
  <path
     d="M 15.04636,3.913625 H 15.2053 V 4.04975 h -0.15894 z"
     style="fill:#202a30;stroke-width:0.147091"
     id="path276" />
  <path
     d="M 18.22516,3.641375 H 18.3841 V 3.7775 h -0.15894 z"
     style="fill:#233036;stroke-width:0.147091"
     id="path278" />
  <path
     d="M 18.22516,3.50525 H 18.3841 V 3.641375 H 18.22516 Z"
     style="fill:#26333a;stroke-width:0.147091"
     id="path280" />
  <path
     d="m 13.6159,3.50525 h 0.15894 V 3.641375 H 13.6159 Z"
     style="fill:#202b31;stroke-width:0.147091"
     id="path282" />
  <path
     d="m 18.06622,3.369125 h 0.15894 V 3.50525 h -0.15894 z"
     style="fill:#202b31;stroke-width:0.147091"
     id="path284" />
  <path
     d="m 13.6159,3.369125 h 0.15894 V 3.50525 H 13.6159 Z"
     style="fill:#253038;stroke-width:0.147091"
     id="path286" />
  <path
     d="m 18.06622,3.233 h 0.15894 v 0.136125 h -0.15894 z"
     style="fill:#26323a;stroke-width:0.147091"
     id="path288" />
  <path
     d="m 13.77484,3.233 h 0.15894 v 0.136125 h -0.15894 z"
     style="fill:#212b32;stroke-width:0.147091"
     id="path290" />
  <path
     d="m 13.93378,3.096875 h 0.15894 V 3.233 h -0.15894 z"
     style="fill:#1f2a30;stroke-width:0.147091"
     id="path292" />
  <path
     d="m 17.5894,2.96075 h 0.15894 V 3.096875 H 17.5894 Z"
     style="fill:#1f292f;stroke-width:0.147091"
     id="path294" />
  <path
     d="m 14.09272,2.96075 h 0.15894 v 0.136125 h -0.15894 z"
     style="fill:#202b32;stroke-width:0.147091"
     id="path296" />
  <path
     d="M 17.43046,2.824625 H 17.5894 V 2.96075 h -0.15894 z"
     style="fill:#233036;stroke-width:0.147091"
     id="path298" />
  <path
     d="m 17.27152,2.824625 h 0.15894 V 2.96075 h -0.15894 z"
     style="fill:#202b31;stroke-width:0.147091"
     id="path300" />
  <path
     d="m 14.4106,2.824625 h 0.15894 V 2.96075 H 14.4106 Z"
     style="fill:#212c32;stroke-width:0.147091"
     id="path302" />
  <path
     d="M 14.25166,2.824625 H 14.4106 V 2.96075 h -0.15894 z"
     style="fill:#243138;stroke-width:0.147091"
     id="path304" />
  <path
     d="M 31.73506,2.007875 H 31.894 V 2.144 h -0.15894 z"
     style="fill:#5e5b30;stroke-width:0.147091"
     id="path306" />
  <path
     d="M 0.42388,2.007875 H 0.58282 V 2.144 H 0.42388 Z"
     style="fill:#243038;stroke-width:0.147091"
     id="path308" />
  <path
     d="M 0.106,2.007875 H 0.26494 V 2.144 H 0.106 Z"
     style="fill:#213037;stroke-width:0.147091"
     id="path310" />
  <path
     d="M 31.73506,1.87175 H 31.894 v 0.136125 h -0.15894 z"
     style="fill:#475555;stroke-width:0.147091"
     id="path312" />
  <path
     d="M 0.106,1.87175 H 0.26494 V 2.007875 H 0.106 Z"
     style="fill:#24373d;stroke-width:0.147091"
     id="path314" />
  <path
     d="m 31.41718,1.735625 h 0.15894 V 1.87175 h -0.15894 z"
     style="fill:#202b31;stroke-width:0.147091"
     id="path316" />
  <path
     d="M 0.42388,1.735625 H 0.58282 V 1.87175 H 0.42388 Z"
     style="fill:#202b30;stroke-width:0.147091"
     id="path318" />
  <path
     d="M 31.73506,1.5995 H 31.894 v 0.136125 h -0.15894 z"
     style="fill:#4b5e71;stroke-width:0.147091"
     id="path320" />
  <path
     d="m 31.25824,1.5995 h 0.15894 v 0.136125 h -0.15894 z"
     style="fill:#222e35;stroke-width:0.147091"
     id="path322" />
  <path
     d="M 0.58282,1.5995 H 0.74176 V 1.735625 H 0.58282 Z"
     style="fill:#222e34;stroke-width:0.147091"
     id="path324" />
  <path
     d="M 0.106,1.5995 H 0.26494 V 1.735625 H 0.106 Z"
     style="fill:#2c4242;stroke-width:0.147091"
     id="path326" />
  <path
     d="m 31.57612,1.463375 h 0.15894 V 1.5995 h -0.15894 z"
     style="fill:#3f5360;stroke-width:0.147091"
     id="path328" />
  <path
     d="m 31.0993,1.463375 h 0.15894 V 1.5995 H 31.0993 Z"
     style="fill:#243138;stroke-width:0.147091"
     id="path330" />
  <path
     d="M 0.74176,1.463375 H 0.9007 V 1.5995 H 0.74176 Z"
     style="fill:#243037;stroke-width:0.147091"
     id="path332" />
  <path
     d="M 0.26494,1.463375 H 0.42388 V 1.5995 H 0.26494 Z"
     style="fill:#202f35;stroke-width:0.147091"
     id="path334" />
  <path
     d="m 31.41718,1.32725 h 0.15894 v 0.136125 h -0.15894 z"
     style="fill:#2e3d48;stroke-width:0.147091"
     id="path336" />
  <path
     d="M 30.94036,1.32725 H 31.0993 V 1.463375 H 30.94036 Z"
     style="fill:#212c32;stroke-width:0.147091"
     id="path338" />
  <path
     d="M 0.9007,1.32725 H 1.05964 V 1.463375 H 0.9007 Z"
     style="fill:#212c32;stroke-width:0.147091"
     id="path340" />
  <path
     d="m 31.25824,1.191125 h 0.15894 V 1.32725 h -0.15894 z"
     style="fill:#223038;stroke-width:0.147091"
     id="path342" />
  <path
     d="m 31.0993,1.055 h 0.15894 V 1.191125 H 31.0993 Z"
     style="fill:#233239;stroke-width:0.147091"
     id="path344" />
  <path
     d="M 30.94036,1.055 H 31.0993 V 1.191125 H 30.94036 Z"
     style="fill:#1d2a31;stroke-width:0.147091"
     id="path346" />
  <path
     d="M 0.9007,1.055 H 1.05964 V 1.191125 H 0.9007 Z"
     style="fill:#1b2429;stroke-width:0.147091"
     id="path348" />
</svg>
