<?xml version="1.0" encoding="UTF-8" standalone="no"?>
<svg
   xmlns:dc="http://purl.org/dc/elements/1.1/"
   xmlns:cc="http://creativecommons.org/ns#"
   xmlns:rdf="http://www.w3.org/1999/02/22-rdf-syntax-ns#"
   xmlns:svg="http://www.w3.org/2000/svg"
   xmlns="http://www.w3.org/2000/svg"
   id="svg"
   version="1.1"
   style="display:block"
   viewBox="0 0 32 13"
   width="32"
   height="13">
  <metadata
     id="metadata43">
    <rdf:RDF>
      <cc:Work
         rdf:about="">
        <dc:format>image/svg+xml</dc:format>
        <dc:type
           rdf:resource="http://purl.org/dc/dcmitype/StillImage" />
        <dc:title></dc:title>
      </cc:Work>
    </rdf:RDF>
  </metadata>
  <defs
     id="defs41" />
  <path
     d="m 13.48656,2.395 h 5.02688 v 0.1610545 h 0.15709 v 0.1610546 h 0.15709 V 2.8781636 H 31.709 V 3.2002727 H 31.55191 V 3.5223818 H 31.39482 V 3.8444909 H 31.23773 V 4.1666 H 31.08064 V 4.4887091 H 30.92355 V 4.8108182 H 30.76646 V 5.1329273 H 30.60937 V 5.2939818 H 18.82762 v 0.1610546 h -0.15709 v 0.1610545 h 10.9963 V 5.9382 H 29.50974 V 6.0992545 H 29.35265 V 6.4213636 H 29.19556 V 6.7434727 H 29.03847 V 7.0655818 H 28.88138 V 7.3876909 H 28.72429 V 7.8708545 H 28.5672 V 8.0319091 H 16.78545 V 8.3540182 H 27.46757 V 8.6761273 H 27.31048 V 8.9982364 H 27.15339 V 9.3203455 H 26.9963 v 0.322109 h -0.15709 v 0.3221091 h -0.15709 v 0.3221094 h -0.15709 v 0.322109 h -0.15709 v 0.161054 H 16.78545 V 11.253 H 14.90037 V 10.769836 H 5.63206 V 10.608782 H 5.47497 V 10.286673 H 5.31788 V 9.9645636 H 5.16079 V 9.6424545 H 5.0037 V 9.3203455 H 4.84661 V 8.9982364 H 4.68952 V 8.6761273 H 4.53243 V 8.3540182 H 14.90037 V 8.0319091 H 3.27571 V 7.5487455 H 3.11862 V 7.2266364 H 2.96153 V 6.7434727 H 2.80444 V 6.4213636 H 2.64735 V 6.0992545 H 2.49026 V 5.9382 H 2.33317 V 5.6160909 H 16.78545 V 5.4550364 h 0.15709 V 5.2939818 H 1.23354 V 4.9718727 H 1.07645 V 4.4887091 H 0.91936 V 4.1666 H 0.76227 V 3.8444909 H 0.60518 V 3.5223818 H 0.44809 V 3.2002727 H 0.291 V 2.8781636 H 13.17238 V 2.7171091 h 0.15709 V 2.5560545 h 0.15709 z"
     style="fill:#27343c;stroke-width:0.15906"
     id="path4" />
  <path
     d="m 0.291,2.8781636 h 12.72429 v 2.0937091 h 0.15709 v 0.1610546 h 1.88508 V 3.5223818 h 2.04217 v 1.7716 H 1.23354 V 4.9718727 H 1.07645 V 4.4887091 H 0.91936 V 4.1666 H 0.76227 V 3.8444909 H 0.60518 V 3.5223818 H 0.44809 V 3.2002727 H 0.291 Z"
     style="fill:#27343c;stroke-width:0.15906"
     id="path6" />
  <path
     d="M 2.33317,5.6160909 H 16.62836 V 5.7771455 H 16.47127 V 5.9382 H 16.31418 V 6.0992545 H 16.15709 V 6.2603091 H 16 V 6.4213636 H 15.84291 V 6.5824182 H 15.68582 V 6.7434727 H 15.52873 V 6.9045273 H 15.37164 V 7.0655818 H 15.21455 V 7.2266364 H 15.05746 V 7.3876909 H 14.90037 V 8.0319091 H 3.27571 V 7.5487455 H 3.11862 V 7.2266364 H 2.96153 V 6.7434727 H 2.80444 V 6.4213636 H 2.64735 V 6.0992545 H 2.49026 V 5.9382 H 2.33317 Z"
     style="fill:#27343c;stroke-width:0.15906"
     id="path8" />
  <path
     d="M 18.98471,2.8781636 H 31.709 V 3.2002727 H 31.55191 V 3.5223818 H 31.39482 V 3.8444909 H 31.23773 V 4.1666 H 31.08064 V 4.4887091 H 30.92355 V 4.8108182 H 30.76646 V 5.1329273 H 30.60937 V 5.2939818 H 19.29889 V 5.1329273 h 0.15709 v -1.7716 H 19.29889 V 3.2002727 H 19.1418 V 3.0392182 h -0.15709 z"
     style="fill:#27343c;stroke-width:0.15906"
     id="path10" />
  <path
     d="m 18.67053,5.6160909 h 10.9963 V 5.9382 H 29.50974 V 6.0992545 H 29.35265 V 6.4213636 H 29.19556 V 6.7434727 H 29.03847 V 7.0655818 H 28.88138 V 7.3876909 H 28.72429 V 7.8708545 H 28.5672 V 8.0319091 H 16.78545 V 7.5487455 h 0.15709 V 7.3876909 h 0.15709 V 7.2266364 h 0.15709 V 7.0655818 h 0.15709 V 6.9045273 H 17.5709 V 6.7434727 h 0.15709 V 6.5824182 h 0.15709 V 6.4213636 h 0.15709 V 6.2603091 h 0.15709 V 6.0992545 h 0.15709 V 5.9382 h 0.15709 V 5.7771455 h 0.15709 z"
     style="fill:#27343c;stroke-width:0.15906"
     id="path12" />
  <path
     d="m 13.48656,2.395 h 5.02688 v 0.1610545 h 0.15709 v 0.1610546 h 0.15709 v 0.1610545 h 0.15709 v 0.1610546 h 0.15709 v 0.1610545 h 0.15709 v 0.1610546 h 0.15709 v 1.7716 H 19.29889 V 5.2939818 H 18.82762 V 5.4550364 H 18.67053 V 5.7771455 H 18.51344 V 5.9382 H 18.35635 V 6.0992545 H 18.19926 V 6.2603091 H 18.04217 V 6.4213636 H 17.88508 V 6.5824182 H 17.72799 V 6.7434727 H 17.5709 v 0.1610546 h -0.15709 v 0.1610545 h -0.15709 v 0.1610546 h -0.15709 v 0.1610545 h -0.15709 v 0.1610546 h -0.15709 v 1.7716 H 14.90037 V 7.3876909 h 0.15709 V 7.2266364 h 0.15709 V 7.0655818 h 0.15709 V 6.9045273 h 0.15709 V 6.7434727 h 0.15709 V 6.5824182 h 0.15709 V 6.4213636 H 16 V 6.2603091 h 0.15709 V 6.0992545 h 0.15709 V 5.9382 h 0.15709 V 5.7771455 h 0.15709 V 5.6160909 h 0.15709 V 5.4550364 h 0.15709 V 5.2939818 h 0.15709 v -1.7716 H 15.05746 V 5.1329273 H 13.17238 V 4.9718727 H 13.01529 V 2.8781636 h 0.15709 V 2.7171091 h 0.15709 V 2.5560545 h 0.15709 z"
     style="fill:#1d272c;stroke-width:0.15906"
     id="path14" />
  <path
     d="m 14.90037,9.8035091 h 1.88508 V 11.253 h -1.88508 z"
     style="fill:#1d272c;stroke-width:0.15906"
     id="path16" />
  <path
     d="m 18.67053,5.6160909 h 0.62836 V 6.0992545 H 19.1418 V 6.2603091 H 18.98471 V 6.4213636 H 18.82762 V 6.5824182 H 18.67053 V 6.7434727 H 18.51344 V 6.9045273 H 18.35635 V 7.0655818 H 18.19926 V 7.2266364 H 18.04217 V 7.3876909 H 17.88508 V 7.7098 H 17.72799 V 7.8708545 H 17.41381 V 8.0319091 H 16.78545 V 7.5487455 h 0.15709 V 7.3876909 h 0.15709 V 7.2266364 h 0.15709 V 7.0655818 h 0.15709 V 6.9045273 H 17.5709 V 6.7434727 h 0.15709 V 6.5824182 h 0.15709 V 6.4213636 h 0.15709 V 6.2603091 h 0.15709 V 6.0992545 h 0.15709 V 5.9382 h 0.15709 V 5.7771455 h 0.15709 z"
     style="fill:#222e35;stroke-width:0.15906"
     id="path18" />
  <path
     d="m 15.52873,4.0055455 h 1.41381 v 1.2884363 h -1.5709 V 5.1329273 h 0.15709 z"
     style="fill:#27343c;stroke-width:0.15906"
     id="path20" />
  <path
     d="m 15.05746,3.5223818 h 2.04217 v 1.7716 H 16.94254 V 4.0055455 h -1.41381 v 1.1273818 h -0.47127 z"
     style="fill:#222e35;stroke-width:0.15906"
     id="path22" />
  <path
     d="m 18.04217,2.395 h 0.47127 v 0.1610545 h -0.47127 z m 0.47127,0.1610545 h 0.15709 v 0.1610546 h -0.15709 z m 0.15709,0.1610546 h 0.15709 v 0.1610545 h -0.15709 z m 0.15709,0.1610545 h 0.15709 v 0.1610546 h 0.15709 v 0.1610545 h 0.15709 v 0.1610546 h 0.15709 v 1.7716 h -0.15709 v 0.1610545 h -0.47127 z m -0.15709,2.4158182 h 0.15709 v 0.1610546 h -0.15709 z"
     style="fill:#1f2a30;stroke-width:0.15906"
     id="path24" />
  <path
     d="m 13.48656,2.395 h 0.47127 v 0.1610545 h -0.47127 z m -0.15709,0.1610545 h 0.15709 v 0.1610546 h -0.15709 z m -0.15709,0.1610546 h 0.15709 v 0.1610545 h -0.15709 z m -0.15709,0.1610545 h 0.15709 v 2.0937091 h -0.15709 z m 1.88508,0.6442182 h 0.15709 V 5.1329273 H 13.17238 V 4.9718727 h 1.72799 z"
     style="fill:#1f2a30;stroke-width:0.15906"
     id="path26" />
  <path
     d="m 16.78545,8.3540182 h 0.62836 v 1.2884363 h -0.62836 z"
     style="fill:#222e35;stroke-width:0.15906"
     id="path28" />
  <path
     d="m 19.1418,3.2002727 h 0.15709 v 0.1610546 h 0.15709 v 1.7716 H 19.29889 V 5.2939818 H 19.1418 Z"
     style="fill:#222e35;stroke-width:0.15906"
     id="path30" />
  <path
     d="m 16.78545,9.9645636 h 0.62836 v 0.8052724 h -0.62836 z"
     style="fill:#222e35;stroke-width:0.15906"
     id="path32" />
  <path
     d="m 18.51344,5.6160909 h 0.15709 v 0.1610546 h -0.15709 z m -0.15709,0.1610546 h 0.15709 V 5.9382 H 18.35635 Z M 18.19926,5.9382 h 0.15709 v 0.1610545 h -0.15709 z m -0.15709,0.1610545 h 0.15709 v 0.1610546 h -0.15709 z m -0.15709,0.1610546 h 0.15709 v 0.1610545 h -0.15709 z m -0.15709,0.1610545 h 0.15709 V 6.5824182 H 17.72799 Z M 17.5709,6.5824182 h 0.15709 V 6.7434727 H 17.5709 Z m -0.15709,0.1610545 h 0.15709 v 0.1610546 h -0.15709 z m -0.15709,0.1610546 h 0.15709 v 0.1610545 h -0.15709 z m -0.15709,0.1610545 h 0.15709 v 0.1610546 h -0.15709 z m -0.15709,0.1610546 h 0.15709 v 0.1610545 h -0.15709 z m -0.15709,0.1610545 h 0.15709 v 0.1610546 h -0.15709 z"
     style="fill:#1f2a30;stroke-width:0.15906"
     id="path34" />
  <path
     d="M 17.41381,7.8708545 H 17.5709 V 8.0319091 H 17.41381 Z"
     style="fill:#26333b;stroke-width:0.15906"
     id="path36" />
</svg>
