<?xml version="1.0" encoding="UTF-8" standalone="no"?>
<svg
   xmlns:dc="http://purl.org/dc/elements/1.1/"
   xmlns:cc="http://creativecommons.org/ns#"
   xmlns:rdf="http://www.w3.org/1999/02/22-rdf-syntax-ns#"
   xmlns:svg="http://www.w3.org/2000/svg"
   xmlns="http://www.w3.org/2000/svg"
   id="svg"
   version="1.1"
   style="display:block"
   viewBox="0 0 32 13"
   width="32"
   height="13">
  <metadata
     id="metadata57">
    <rdf:RDF>
      <cc:Work
         rdf:about="">
        <dc:format>image/svg+xml</dc:format>
        <dc:type
           rdf:resource="http://purl.org/dc/dcmitype/StillImage" />
        <dc:title></dc:title>
      </cc:Work>
    </rdf:RDF>
  </metadata>
  <defs
     id="defs55" />
  <path
     id="path4"
     style="fill:#1c272d;stroke-width:0.153574"
     d="M 15.37164,2.395 V 2.5451356 H 14.58619 V 2.6952712 H 14.11492 V 2.8454068 H 13.80074 V 2.9955424 H 13.48656 V 3.145678 H 0.291 V 3.4459492 H 0.44809 V 3.7462203 H 0.60518 V 4.0464915 H 0.76227 V 4.3467627 H 0.91935999 V 4.6470339 H 1.07645 V 5.0974407 H 1.23354 V 5.3977119 H 11.60148 V 5.5478475 H 11.44439 V 5.6979831 H 2.33317 V 5.9982542 H 2.49026 V 6.1483898 H 2.64735 V 6.448661 H 2.80444 V 6.7489322 H 2.96153 V 7.199339 h 0.15709 v 0.3002712 h 0.15709 v 0.4504067 h 8.16868 v 0.1501356 h 0.15709 V 8.2502881 H 4.5324299 v 0.3002712 h 0.15709 v 0.3002712 h 0.15709 v 0.3002712 h 0.15709 v 0.3002712 h 0.15709 v 0.3002712 h 0.15709 v 0.3002709 h 0.15709 v 0.300271 h 0.15709 v 0.150136 H 13.48656 v 0.150136 h 0.15709 v 0.150135 h 0.47127 v 0.150136 h 0.47127 v 0.150135 h 0.78545 V 11.253 h 1.41381 v -0.150136 h 0.62836 v -0.150135 h 0.47127 v -0.150136 h 0.31418 v -0.150135 h 0.31418 v -0.150136 h 7.8545 v -0.150136 h 0.15709 v -0.300271 h 0.15709 V 9.7516441 h 0.15709 V 9.4513729 H 26.9963 V 9.1511017 h 0.15709 V 8.8508305 h 0.15709 V 8.5505593 h 0.15709 V 8.2502881 H 20.39852 V 7.9500169 H 28.5672 V 7.7998814 h 0.15709 V 7.3494746 h 0.15709 V 7.0492034 h 0.15709 V 6.7489322 h 0.15709 V 6.448661 h 0.15709 V 6.1483898 h 0.15709 V 5.9982542 h 0.15709 V 5.6979831 H 20.39852 V 5.3977119 H 30.60937 V 5.2475763 h 0.15709 V 4.9473051 h 0.15709 V 4.6470339 h 0.15709 V 4.3467627 h 0.15709 V 4.0464915 h 0.15709 V 3.7462203 h 0.15709 V 3.4459492 H 31.709 V 3.145678 H 18.51344 V 2.9955424 H 18.19926 V 2.8454068 H 17.88508 V 2.6952712 H 17.41381 V 2.5451356 H 16.78545 V 2.395 Z m -2.82762,3.0027119 h 3.1418 v 0.3002712 h -3.1418 z m 3.92725,0 h 2.82762 v 0.1501356 h 0.15709 v 0.1501356 h -2.98471 z m -3.92725,2.552305 h 1.5709 v 0.1501356 h -0.15709 v 0.1501356 h -1.41381 z m 2.67053,0 h 4.24143 V 8.2502881 H 15.05746 V 8.1001525 h 0.15709 z" />
  <path
     d="M 18.51344,3.145678 H 31.709 V 3.4459492 H 31.55191 V 3.7462203 H 31.39482 V 4.0464915 H 31.23773 V 4.3467627 H 31.08064 V 4.6470339 H 30.92355 V 4.9473051 H 30.76646 V 5.2475763 H 30.60937 V 5.3977119 H 20.24143 V 5.0974407 H 20.08434 V 4.7971695 H 19.92725 V 4.4968983 H 19.77016 V 4.1966271 H 19.61307 V 4.0464915 H 19.45598 V 3.8963559 H 19.29889 V 3.7462203 H 19.1418 V 3.5960847 H 18.98471 V 3.4459492 H 18.82762 V 3.2958136 h -0.31418 z"
     style="fill:#26333c;stroke-width:0.153574"
     id="path6" />
  <path
     d="M 0.291,3.145678 H 13.17238 V 3.2958136 H 13.01529 V 3.4459492 H 12.8582 V 3.5960847 H 12.70111 V 3.7462203 H 12.54402 V 3.8963559 H 12.38693 V 4.0464915 H 12.22984 V 4.1966271 H 12.07275 V 4.4968983 H 11.91566 V 4.6470339 H 11.75857 V 4.9473051 H 11.60148 V 5.3977119 H 1.23354 V 5.0974407 H 1.07645 V 4.6470339 H 0.91935999 V 4.3467627 H 0.76227 V 4.0464915 H 0.60518 V 3.7462203 H 0.44809 V 3.4459492 H 0.291 Z"
     style="fill:#26343c;stroke-width:0.153574"
     id="path8" />
  <path
     d="m 20.39852,5.6979831 h 9.26831 V 5.9982542 H 29.50974 V 6.1483898 H 29.35265 V 6.448661 H 29.19556 V 6.7489322 H 29.03847 V 7.0492034 H 28.88138 V 7.3494746 H 28.72429 V 7.7998814 H 28.5672 V 7.9500169 H 20.39852 V 7.7998814 h 0.15709 V 5.9982542 h -0.15709 z"
     style="fill:#27343c;stroke-width:0.153574"
     id="path10" />
  <path
     d="m 2.33317,5.6979831 h 9.11122 V 5.9982542 H 11.2873 v 1.6514916 h 0.15709 V 7.9500169 H 3.27571 V 7.4996102 H 3.11862 V 7.199339 H 2.96153 V 6.7489322 H 2.80444 V 6.448661 H 2.64735 V 6.1483898 H 2.49026 V 5.9982542 H 2.33317 Z"
     style="fill:#26343c;stroke-width:0.153574"
     id="path12" />
  <path
     d="m 20.39852,8.2502881 h 7.06905 V 8.5505593 H 27.31048 V 8.8508305 H 27.15339 V 9.1511017 H 26.9963 v 0.3002712 h -0.15709 v 0.3002712 h -0.15709 v 0.3002709 h -0.15709 v 0.300271 h -0.15709 v 0.150136 h -7.69741 v -0.150136 h 0.31418 v -0.150135 h 0.15709 v -0.150136 h 0.15709 V 9.9017797 h 0.15709 V 9.7516441 h 0.15709 V 9.6015085 h 0.15709 V 9.3012373 h 0.15709 V 9.1511017 h 0.15709 V 8.8508305 h 0.15709 V 8.4004237 h 0.15709 z"
     style="fill:#27343c;stroke-width:0.153574"
     id="path14" />
  <path
     d="M 4.5324299,8.2502881 H 11.60148 v 0.4504068 h 0.15709 v 0.3002712 h 0.15709 v 0.1501356 h 0.15709 v 0.3002712 h 0.15709 v 0.1501356 h 0.15709 v 0.1501356 h 0.15709 v 0.1501356 h 0.15709 v 0.1501353 h 0.15709 v 0.150136 h 0.15709 v 0.150135 h 0.15709 v 0.150136 H 5.6320599 v -0.150136 h -0.15709 v -0.300271 h -0.15709 V 9.7516441 h -0.15709 V 9.4513729 h -0.15709 V 9.1511017 h -0.15709 V 8.8508305 h -0.15709 V 8.5505593 h -0.15709 z"
     style="fill:#27343c;stroke-width:0.153574"
     id="path16" />
  <path
     d="m 12.54402,8.2502881 h 1.25672 v 0.1501356 h -0.15709 v 0.1501356 h -0.15709 v 0.3002712 h 0.15709 v 0.1501356 h 0.62836 V 8.8508305 H 14.4291 V 8.7006949 h 0.15709 V 8.5505593 h 0.15709 V 8.4004237 h 0.15709 V 8.2502881 h 4.39852 V 8.4004237 H 19.1418 v 0.1501356 h -0.15709 v 0.3002712 h -0.15709 v 0.1501356 h -0.15709 v 0.1501356 h -0.15709 v 0.1501356 h -0.15709 v 0.1501356 h -0.15709 v 0.1501356 h -0.15709 v 0.1501356 h -0.15709 v 0.1501356 h -0.15709 v 0.1501353 h -0.47127 v 0.150136 h -0.31418 v 0.150135 h -0.31418 v 0.150136 H 15.37164 V 10.352186 H 14.90037 V 10.202051 H 14.58619 V 10.051915 H 14.11492 V 9.9017797 H 13.80074 V 9.7516441 H 13.64365 V 9.6015085 H 13.48656 V 9.4513729 H 13.32947 V 9.3012373 H 13.17238 V 9.1511017 H 13.01529 V 8.8508305 H 12.8582 V 8.7006949 H 12.70111 V 8.4004237 h -0.15709 z"
     style="fill:#27343c;stroke-width:0.153574"
     id="path18" />
  <path
     d="m 15.05746,3.2958136 h 1.72799 v 0.1501356 h 0.47127 v 0.1501355 h 0.31418 v 0.1501356 h 0.31418 v 0.1501356 h 0.31418 v 0.1501356 h 0.15709 v 0.1501356 h 0.15709 v 0.1501356 h 0.15709 v 0.1501356 h 0.15709 v 0.1501356 h 0.15709 v 0.1501356 h 0.15709 v 0.3002712 h 0.15709 V 5.3977119 H 16.47127 V 3.8963559 H 16.31418 V 3.7462203 H 15.68582 V 5.3977119 H 12.70111 V 4.9473051 H 12.8582 V 4.7971695 h 0.15709 V 4.4968983 h 0.15709 V 4.3467627 h 0.15709 V 4.1966271 h 0.15709 V 4.0464915 h 0.31418 V 3.8963559 h 0.15709 V 3.7462203 h 0.31418 V 3.5960847 h 0.31418 V 3.4459492 h 0.47127 z"
     style="fill:#27343c;stroke-width:0.153574"
     id="path20" />
  <path
     d="m 16.47127,5.6979831 h 2.98471 v 0.1501355 h 0.15709 v 0.3002712 h 0.15709 V 7.3494746 H 19.61307 V 7.7998814 H 19.45598 V 7.9500169 H 15.37164 V 7.7998814 h 0.31418 V 7.6497458 h 0.78545 V 7.4996102 h 0.15709 V 7.3494746 h 0.15709 V 6.448661 H 16.62836 V 6.2985254 h -0.15709 z"
     style="fill:#26343c;stroke-width:0.153574"
     id="path22" />
  <path
     d="m 12.54402,5.6979831 h 3.1418 V 6.2985254 H 15.37164 V 6.5987966 H 15.21455 V 7.0492034 H 15.05746 V 7.199339 H 14.90037 V 7.3494746 H 14.74328 V 7.4996102 H 14.58619 V 7.6497458 H 14.4291 V 7.7998814 H 14.27201 V 7.9500169 H 12.38693 V 7.7998814 H 12.22984 V 5.9982542 h 0.15709 V 5.8481186 h 0.15709 z"
     style="fill:#27343c;stroke-width:0.153574"
     id="path24" />
  <path
     d="m 15.68582,3.7462203 h 0.62836 v 0.1501356 h 0.15709 v 2.4021695 h 0.15709 V 6.448661 h 0.15709 V 7.3494746 H 16.62836 V 7.4996102 H 16.47127 V 7.6497458 H 15.68582 V 7.7998814 H 15.37164 V 7.9500169 H 15.21455 V 8.1001525 H 15.05746 V 8.2502881 H 14.90037 V 8.4004237 H 14.74328 V 8.5505593 H 14.58619 V 8.7006949 H 14.4291 V 8.8508305 H 14.27201 V 9.0009661 H 13.64365 V 8.8508305 H 13.48656 V 8.5505593 h 0.15709 V 8.4004237 h 0.15709 V 8.2502881 h 0.15709 V 8.1001525 h 0.15709 V 7.9500169 h 0.15709 V 7.7998814 H 14.4291 V 7.6497458 h 0.15709 V 7.4996102 h 0.15709 V 7.3494746 h 0.15709 V 7.199339 h 0.15709 V 7.0492034 h 0.15709 V 6.5987966 h 0.15709 V 6.2985254 h 0.31418 z"
     style="fill:#1c272d;stroke-width:0.153574"
     id="path26" />
  <path
     d="m 15.68582,7.6497458 h 0.15709 v 0.1501356 h -0.15709 z m -0.31418,0.1501356 h 0.31418 v 0.1501355 h -0.31418 z"
     style="fill:#27343c;stroke-width:0.153574"
     id="path36" />
  <path
     d="m 18.51344,3.145678 h 0.31418 v 0.1501356 h -0.31418 z"
     style="fill:#27343c;stroke-width:0.153574"
     id="path38" />
  <path
     d="m 15.37164,6.2985254 h 0.15709 V 6.448661 h -0.15709 z"
     style="fill:#1d272e;stroke-width:0.153574"
     id="path40" />
  <path
     d="m 16.47127,5.6979831 h 0.15709 v 0.1501355 h -0.15709 z"
     style="fill:#27343c;stroke-width:0.153574"
     id="path42" />
  <path
     d="M 2.33317,5.6979831 H 2.49026 V 5.8481186 H 2.33317 Z"
     style="fill:#27343c;stroke-width:0.153574"
     id="path44" />
  <path
     d="m 19.29889,5.3977119 h 0.15709 v 0.1501356 h -0.15709 z"
     style="fill:#1f2931;stroke-width:0.153574"
     id="path46" />
  <path
     d="m 15.68582,3.7462203 h 0.15709 v 0.1501356 h -0.15709 z"
     style="fill:#1d272d;stroke-width:0.153574"
     id="path48" />
  <path
     d="M 0.291,3.145678 H 0.44809 V 3.2958136 H 0.291 Z"
     style="fill:#27343c;stroke-width:0.153574"
     id="path50" />
</svg>
